<svg xmlns="http://www.w3.org/2000/svg" width="30" height="29" viewBox="0 0 26 29" fill="none">
<path d="M20.8194 14.5515C20.2621 14.2866 19.6935 14.0584 19.1149 13.8672C20.9887 12.4607 22.2031 10.2211 22.2031 7.70312C22.2031 3.45564 18.7475 0 14.5 0C10.2524 0 6.79685 3.45564 6.79685 7.70312C6.79685 10.2239 8.01395 12.4657 9.8913 13.8719C8.17124 14.4382 6.55726 15.3194 5.14465 16.4813C2.55436 18.6119 0.753355 21.5838 0.0734977 24.8495C-0.139584 25.8728 0.115695 26.9238 0.773746 27.733C1.42857 28.5382 2.39956 29 3.43767 29H17.3886C18.0143 29 18.5215 28.4928 18.5215 27.8672C18.5215 27.2415 18.0143 26.7344 17.3886 26.7344H3.43767C2.95407 26.7344 2.66231 26.4644 2.53147 26.3036C2.30553 26.0257 2.21808 25.6641 2.29154 25.3113C3.46712 19.6645 8.44787 15.5396 14.1997 15.4005C14.2993 15.4043 14.3994 15.4062 14.5 15.4062C14.6015 15.4062 14.7026 15.4043 14.8032 15.4004C16.5659 15.4417 18.2611 15.844 19.8467 16.5977C20.4118 16.8662 21.0876 16.626 21.3562 16.0609C21.6247 15.4959 21.3845 14.8201 20.8194 14.5515ZM14.7763 13.1337C14.6843 13.132 14.5922 13.1312 14.5 13.1312C14.4086 13.1312 14.3171 13.1321 14.2258 13.1338C11.3544 12.9905 9.06248 10.6095 9.06248 7.70312C9.06248 4.70485 11.5017 2.26562 14.5 2.26562C17.4982 2.26562 19.9375 4.70485 19.9375 7.70312C19.9375 10.6087 17.6466 12.9893 14.7763 13.1337Z" fill="#6E4BE8"/>
<path d="M27.8672 22.4863H24.752V19.3711C24.752 18.7454 24.2448 18.2383 23.6191 18.2383C22.9935 18.2383 22.4863 18.7454 22.4863 19.3711V22.4863H19.3711C18.7454 22.4863 18.2383 22.9935 18.2383 23.6191C18.2383 24.2448 18.7454 24.752 19.3711 24.752H22.4863V27.8672C22.4863 28.4928 22.9935 29 23.6191 29C24.2448 29 24.752 28.4928 24.752 27.8672V24.752H27.8672C28.4928 24.752 29 24.2448 29 23.6191C29 22.9935 28.4928 22.4863 27.8672 22.4863Z" fill="#6E4BE8"/>
</svg>