<svg width="49" height="46" viewBox="0 0 49 46" fill="none" xmlns="http://www.w3.org/2000/svg">
<path fill-rule="evenodd" clip-rule="evenodd" d="M46.5141 17.0786C46.2673 16.7928 45.8385 16.7408 45.5267 16.9487L43.5128 18.2479V1.87716C43.4478 0.941685 42.6423 0.240081 41.7198 0.292051H41.6938H6.6266C5.69112 0.214095 4.87258 0.9157 4.79463 1.83818V1.86417V17.5853L3.83317 16.9617C3.50835 16.7278 3.05361 16.7798 2.79375 17.0916C1.61142 18.5338 0.97478 20.3398 1.00077 22.2107V38.4516C1.03974 41.9596 2.94967 45.7145 8.30265 45.7145H41.0702C44.5782 45.7145 48.3461 43.8045 48.3461 38.4386V22.2107C48.437 20.3268 47.7744 18.4818 46.5141 17.0786ZM6.6266 1.85117H41.7068C41.7776 1.85117 41.8346 1.86257 41.8771 1.87104C41.936 1.8828 41.9667 1.88893 41.9667 1.85117V19.2873L24.6864 30.487L6.36674 18.6117L6.34076 1.94212C6.41871 1.87716 6.52265 1.83818 6.6266 1.85117ZM2.85872 40.1796C2.7158 39.6079 2.65084 39.0232 2.63784 38.4386L2.61186 22.1977C2.59886 20.9504 2.93667 19.7291 3.58631 18.6637L18.5279 28.3562L2.85872 40.1796ZM8.30265 44.1423C5.57419 44.1423 4.14499 42.986 3.40441 41.6737L19.9051 29.2267L24.2447 32.0462C24.3486 32.0981 24.4655 32.1241 24.5825 32.1241C24.6994 32.1241 24.8163 32.0981 24.9203 32.0462L29.1559 29.3047L45.7216 41.7777C44.6432 43.2718 42.9151 44.1553 41.0702 44.1553L8.30265 44.1423ZM46.774 22.1977L46.761 38.4386C46.761 39.0752 46.683 39.6988 46.5271 40.3095L30.754 28.4212L45.7995 18.6637C46.4881 19.7161 46.8259 20.9504 46.774 22.1977ZM25.414 10.1017V17.6505C25.414 18.0532 25.0762 18.391 24.6735 18.391C24.2707 18.391 23.9329 18.0532 23.9329 17.6505V11.5309C23.673 11.6349 23.3872 11.6998 23.1273 11.6998C22.7246 11.6998 22.3867 11.362 22.3867 10.9592C22.3867 10.5565 22.7246 10.2187 23.1273 10.2187C23.3872 10.2187 23.8289 10.0108 24.0888 9.65997C24.0888 9.65997 24.0888 9.64697 24.1018 9.64697C24.1018 9.63398 24.1148 9.62099 24.1278 9.62099C24.1278 9.608 24.1408 9.595 24.1538 9.58201L24.1797 9.55603C24.1878 9.55603 24.1908 9.55106 24.1951 9.5442C24.1977 9.53997 24.2008 9.535 24.2057 9.53004C24.2122 9.53004 24.2155 9.52679 24.2187 9.52354C24.222 9.5203 24.2252 9.51705 24.2317 9.51705C24.2447 9.50406 24.2577 9.49106 24.2707 9.49106L24.2967 9.46508C24.3097 9.46508 24.3227 9.45208 24.3357 9.43909C24.3486 9.43909 24.3616 9.43909 24.3746 9.4261C24.3746 9.4261 24.3876 9.41311 24.4006 9.41311C24.4136 9.40011 24.4266 9.40011 24.4396 9.40011C24.4526 9.38712 24.4656 9.38712 24.4786 9.38712C24.4916 9.37413 24.5046 9.37413 24.5175 9.37413C24.524 9.37413 24.5305 9.37088 24.537 9.36763C24.5435 9.36438 24.55 9.36114 24.5565 9.36114H24.5955C24.6085 9.34814 24.6215 9.34814 24.6345 9.34814H24.6605H24.7124H24.7254H24.7384H24.7904H24.8294C24.8424 9.34814 24.8554 9.34814 24.8684 9.36114H24.9073C24.9138 9.36114 24.9203 9.36438 24.9268 9.36763C24.9333 9.37088 24.9398 9.37413 24.9463 9.37413C24.9528 9.37413 24.9593 9.37738 24.9658 9.38062C24.9723 9.38387 24.9788 9.38712 24.9853 9.38712C24.9983 9.38712 25.0113 9.40011 25.0113 9.40011C25.0178 9.40011 25.0243 9.40336 25.0308 9.40661C25.0373 9.40986 25.0438 9.41311 25.0502 9.41311C25.0567 9.41311 25.0632 9.41635 25.0697 9.4196C25.0762 9.42285 25.0827 9.4261 25.0892 9.4261L25.1282 9.45208C25.1347 9.45208 25.1379 9.45533 25.1412 9.45858C25.1444 9.46183 25.1477 9.46508 25.1542 9.46508C25.1672 9.47807 25.1802 9.49106 25.1932 9.49106C25.1932 9.50406 25.2062 9.50406 25.2062 9.50406C25.2192 9.50406 25.2192 9.51705 25.2192 9.51705L25.2581 9.54303C25.2581 9.55106 25.2631 9.55413 25.27 9.55837C25.2742 9.56099 25.2792 9.56406 25.2841 9.56902L25.3101 9.595C25.3166 9.6015 25.3198 9.608 25.3231 9.61449C25.3263 9.62099 25.3296 9.62749 25.3361 9.63398C25.3426 9.63398 25.3458 9.63723 25.3491 9.64048C25.3523 9.64373 25.3556 9.64697 25.3621 9.64697C25.3621 9.65997 25.3751 9.67296 25.3881 9.68595C25.3881 9.69895 25.4011 9.71194 25.4011 9.71194L25.427 9.75092C25.427 9.75741 25.4303 9.76391 25.4335 9.77041C25.4368 9.7769 25.44 9.7834 25.44 9.78989C25.453 9.80289 25.453 9.81588 25.453 9.82887L25.479 9.86785C25.479 9.86785 25.479 9.88084 25.492 9.89384V9.93281C25.505 9.94581 25.505 9.9588 25.505 9.97179C25.505 9.97829 25.5082 9.98478 25.5115 9.99128C25.5147 9.99778 25.518 10.0043 25.518 10.0108V10.0497V10.0887C25.518 10.0941 25.5002 10.0928 25.4793 10.0913C25.4497 10.0891 25.414 10.0865 25.414 10.1017ZM15.9034 13.8956C15.9034 18.7289 19.8402 22.6657 24.6735 22.6657C29.5197 22.6657 33.4435 18.7289 33.4435 13.8956C33.4435 9.06237 29.5067 5.12559 24.6735 5.12559C19.8402 5.12559 15.9034 9.06237 15.9034 13.8956ZM17.4625 13.8827C17.4625 9.90689 20.6977 6.67172 24.6735 6.67172C28.6622 6.67172 31.8974 9.90689 31.8844 13.8827C31.8844 17.8584 28.6492 21.0936 24.6735 21.0936C20.6977 21.0936 17.4625 17.8584 17.4625 13.8827Z" fill="black"/>
<path d="M45.5267 16.9487L45.6351 17.1167L45.6376 17.1151L45.5267 16.9487ZM46.5141 17.0786L46.3627 17.2093L46.3653 17.2122L46.5141 17.0786ZM43.5128 18.2479H43.3128V18.615L43.6212 18.416L43.5128 18.2479ZM43.5128 1.87716H43.7133L43.7123 1.8633L43.5128 1.87716ZM41.7198 0.292051V0.492368L41.7311 0.491735L41.7198 0.292051ZM6.6266 0.292051L6.60999 0.49136L6.61828 0.492051H6.6266V0.292051ZM4.79463 1.83818L4.59534 1.82134L4.59463 1.82974V1.83818H4.79463ZM4.79463 17.5853L4.68579 17.7531L4.99463 17.9534V17.5853H4.79463ZM3.83317 16.9617L3.71617 17.1242L3.72433 17.1294L3.83317 16.9617ZM2.79375 17.0916L2.64011 16.9635L2.63909 16.9648L2.79375 17.0916ZM1.00077 22.2107H1.20078L1.20075 22.2079L1.00077 22.2107ZM1.00077 38.4516H0.800753L0.800777 38.4538L1.00077 38.4516ZM48.3461 22.2107L48.1461 22.201V22.2107H48.3461ZM6.6266 1.85117L6.60179 2.04963L6.61414 2.05117H6.6266V1.85117ZM41.8771 1.87104L41.8379 2.06717L41.8771 1.87104ZM41.9667 19.2873L42.0755 19.4552L42.1667 19.3961V19.2873H41.9667ZM24.6864 30.487L24.5776 30.6549L24.6864 30.7254L24.7952 30.6549L24.6864 30.487ZM6.36674 18.6117L6.16674 18.612L6.16691 18.7205L6.25795 18.7796L6.36674 18.6117ZM6.34076 1.94212L6.21272 1.78848L6.14061 1.84857L6.14076 1.94243L6.34076 1.94212ZM2.63784 38.4386L2.4378 38.4389L2.43789 38.443L2.63784 38.4386ZM2.85872 40.1796L2.66469 40.2281L2.73798 40.5212L2.97918 40.3392L2.85872 40.1796ZM2.61186 22.1977L2.81186 22.1974L2.81185 22.1956L2.61186 22.1977ZM3.58631 18.6637L3.69515 18.4959L3.52262 18.384L3.41555 18.5596L3.58631 18.6637ZM18.5279 28.3562L18.6484 28.5159L18.8763 28.3439L18.6367 28.1884L18.5279 28.3562ZM3.40441 41.6737L3.28397 41.5141L3.14417 41.6195L3.23023 41.772L3.40441 41.6737ZM8.30265 44.1423L8.30273 43.9423H8.30265V44.1423ZM19.9051 29.2267L20.0141 29.059L19.8966 28.9827L19.7847 29.0671L19.9051 29.2267ZM24.2447 32.0462L24.1357 32.2139L24.1451 32.22L24.1552 32.225L24.2447 32.0462ZM24.9203 32.0462L25.0097 32.225L25.0196 32.2201L25.029 32.2141L24.9203 32.0462ZM29.1559 29.3047L29.2762 29.1449L29.1646 29.0609L29.0472 29.1368L29.1559 29.3047ZM45.7216 41.7777L45.8837 41.8947L45.9984 41.7358L45.8419 41.6179L45.7216 41.7777ZM41.0702 44.1553L41.0701 44.3553H41.0702V44.1553ZM46.761 38.4386L46.561 38.4384V38.4386H46.761ZM46.774 22.1977L46.574 22.1894L46.574 22.1975L46.774 22.1977ZM46.5271 40.3095L46.4067 40.4692L46.6466 40.65L46.7209 40.359L46.5271 40.3095ZM30.754 28.4212L30.6452 28.2534L30.4054 28.4089L30.6336 28.5809L30.754 28.4212ZM45.7995 18.6637L45.9669 18.5542L45.8578 18.3875L45.6907 18.4959L45.7995 18.6637ZM23.9329 11.5309H24.1329V11.2355L23.8586 11.3452L23.9329 11.5309ZM24.0888 9.65997L24.2495 9.77901L24.2888 9.72599L24.2888 9.66L24.0888 9.65997ZM24.1018 9.64697V9.84697H24.3018V9.64697H24.1018ZM24.1278 9.62099V9.82099H24.3278V9.62099H24.1278ZM24.1538 9.58201L24.2952 9.72343L24.2952 9.72343L24.1538 9.58201ZM24.1797 9.55603V9.35603H24.0969L24.0383 9.41461L24.1797 9.55603ZM24.1951 9.5442L24.025 9.43902L24.0249 9.43907L24.1951 9.5442ZM24.2057 9.53004V9.33004H24.1229L24.0643 9.38861L24.2057 9.53004ZM24.2317 9.51705V9.71705H24.3146L24.3731 9.65847L24.2317 9.51705ZM24.2707 9.49106V9.69106H24.3535L24.4121 9.63248L24.2707 9.49106ZM24.2967 9.46508V9.26508H24.2138L24.1552 9.32366L24.2967 9.46508ZM24.3357 9.43909V9.23909H24.2528L24.1942 9.29767L24.3357 9.43909ZM24.3746 9.4261L24.2332 9.28467L24.2332 9.28468L24.3746 9.4261ZM24.4006 9.41311V9.61311H24.4835L24.542 9.55453L24.4006 9.41311ZM24.4396 9.40011V9.60011H24.5224L24.581 9.54154L24.4396 9.40011ZM24.4786 9.38712V9.58712H24.5614L24.62 9.52854L24.4786 9.38712ZM24.5955 9.36114V9.56114H24.6783L24.7369 9.50256L24.5955 9.36114ZM24.8684 9.36114L24.7269 9.50256L24.7855 9.56114H24.8684V9.36114ZM25.0113 9.40011L24.8699 9.54154L24.9284 9.60011H25.0113V9.40011ZM25.0892 9.4261L25.2002 9.25969L25.1498 9.2261H25.0892V9.4261ZM25.1282 9.45208L25.0173 9.6185L25.0677 9.65208H25.1282V9.45208ZM25.1412 9.45858L25.2827 9.3172L25.2826 9.31716L25.1412 9.45858ZM25.1542 9.46508L25.2956 9.32365L25.237 9.26508H25.1542V9.46508ZM25.1932 9.49106H25.3932V9.29106H25.1932V9.49106ZM25.2062 9.50406V9.30405H25.2061L25.2062 9.50406ZM25.2192 9.51705H25.0192V9.62409L25.1082 9.68346L25.2192 9.51705ZM25.2581 9.54303H25.4581V9.43599L25.3691 9.37662L25.2581 9.54303ZM25.27 9.55837L25.3751 9.38825L25.3751 9.38824L25.27 9.55837ZM25.2841 9.56902L25.4255 9.42759L25.4255 9.42758L25.2841 9.56902ZM25.3101 9.595L25.4515 9.45358L25.4515 9.45358L25.3101 9.595ZM25.3361 9.63398L25.1947 9.77541L25.2533 9.83398H25.3361V9.63398ZM25.3621 9.64697H25.5621V9.44697H25.3621V9.64697ZM25.3881 9.68595H25.5881V9.60311L25.5295 9.54453L25.3881 9.68595ZM25.4011 9.71194L25.5675 9.601L25.5565 9.58452L25.5425 9.57051L25.4011 9.71194ZM25.427 9.75092H25.627V9.69036L25.5934 9.63998L25.427 9.75092ZM25.44 9.78989H25.24V9.87274L25.2986 9.93132L25.44 9.78989ZM25.453 9.82887H25.253V9.88943L25.2866 9.93981L25.453 9.82887ZM25.479 9.86785H25.679V9.80729L25.6454 9.75691L25.479 9.86785ZM25.492 9.89384H25.692V9.81099L25.6334 9.75241L25.492 9.89384ZM25.492 9.93281H25.292V10.0157L25.3506 10.0742L25.492 9.93281ZM25.5115 9.99128L25.6904 9.90188L25.6904 9.90184L25.5115 9.99128ZM25.4793 10.0913L25.4647 10.2907H25.4647L25.4793 10.0913ZM31.8844 13.8827L31.6844 13.882V13.8827H31.8844ZM45.6376 17.1151C45.8677 16.9617 46.1836 17.0018 46.3628 17.2093L46.6655 16.9479C46.351 16.5837 45.8093 16.5199 45.4157 16.7823L45.6376 17.1151ZM43.6212 18.416L45.6351 17.1167L45.4183 16.7806L43.4044 18.0799L43.6212 18.416ZM43.3128 1.87716V18.2479H43.7128V1.87716H43.3128ZM41.7311 0.491735C42.5446 0.4459 43.2559 1.06507 43.3133 1.89101L43.7123 1.8633C43.6398 0.818303 42.74 0.0342612 41.7086 0.0923679L41.7311 0.491735ZM41.6938 0.492051H41.7198V0.0920513H41.6938V0.492051ZM6.6266 0.492051H41.6938V0.0920513H6.6266V0.492051ZM4.99392 1.85502C5.06263 1.04188 5.78513 0.422622 6.60999 0.49136L6.6432 0.0927421C5.59712 0.00556812 4.68253 0.789516 4.59534 1.82134L4.99392 1.85502ZM4.99463 1.86417V1.83818H4.59463V1.86417H4.99463ZM4.99463 17.5853V1.86417H4.59463V17.5853H4.99463ZM3.72433 17.1294L4.68579 17.7531L4.90347 17.4175L3.94201 16.7939L3.72433 17.1294ZM2.9474 17.2196C3.13892 16.9898 3.47524 16.9504 3.71631 17.124L3.95003 16.7994C3.54147 16.5052 2.9683 16.5697 2.64011 16.9635L2.9474 17.2196ZM1.20075 22.2079C1.17542 20.3844 1.79582 18.6243 2.94842 17.2184L2.63909 16.9648C1.42702 18.4432 0.77414 20.2951 0.800784 22.2135L1.20075 22.2079ZM1.20077 38.4516V22.2107H0.800765V38.4516H1.20077ZM8.30265 45.5145C5.6776 45.5145 3.92113 44.5963 2.81239 43.2702C1.69841 41.9378 1.21989 40.1712 1.20075 38.4493L0.800777 38.4538C0.820623 40.2399 1.31655 42.1047 2.50552 43.5268C3.69973 44.9551 5.57472 45.9145 8.30265 45.9145V45.5145ZM41.0702 45.5145H8.30265V45.9145H41.0702V45.5145ZM48.1461 38.4386C48.1461 41.0701 47.2247 42.8296 45.8957 43.935C44.5605 45.0456 42.7913 45.5145 41.0702 45.5145V45.9145C42.8571 45.9145 44.7258 45.4284 46.1515 44.2425C47.5835 43.0514 48.5461 41.173 48.5461 38.4386H48.1461ZM48.1461 22.2107V38.4386H48.5461V22.2107H48.1461ZM46.3653 17.2122C47.5907 18.5766 48.2347 20.3702 48.1463 22.2011L48.5459 22.2203C48.6394 20.2833 47.9581 18.387 46.6629 16.945L46.3653 17.2122ZM41.7068 1.65117H6.6266V2.05117H41.7068V1.65117ZM41.9162 1.67491C41.8728 1.66625 41.799 1.65117 41.7068 1.65117V2.05117C41.7562 2.05117 41.7964 2.05888 41.8379 2.06717L41.9162 1.67491ZM41.7667 1.85117C41.7667 1.83747 41.7689 1.78983 41.8075 1.74365C41.8485 1.69452 41.8998 1.68341 41.9213 1.68096C41.9403 1.67879 41.9518 1.68133 41.945 1.68033C41.9399 1.67959 41.9325 1.67816 41.9162 1.67491L41.8379 2.06717C41.851 2.06979 41.8695 2.07354 41.8869 2.07608C41.9023 2.07836 41.9326 2.08227 41.9666 2.07839C42.0032 2.07422 42.0658 2.0583 42.1145 2.00007C42.1606 1.94479 42.1667 1.88376 42.1667 1.85117H41.7667ZM42.1667 19.2873V1.85117H41.7667V19.2873H42.1667ZM24.7952 30.6549L42.0755 19.4552L41.8579 19.1195L24.5776 30.3192L24.7952 30.6549ZM6.25795 18.7796L24.5776 30.6549L24.7952 30.3192L6.47553 18.4439L6.25795 18.7796ZM6.14076 1.94243L6.16674 18.612L6.56674 18.6114L6.54076 1.94181L6.14076 1.94243ZM6.6514 1.65272C6.48241 1.63159 6.32471 1.69515 6.21272 1.78848L6.46879 2.09577C6.51271 2.05917 6.5629 2.04477 6.60179 2.04963L6.6514 1.65272ZM2.43789 38.443C2.45114 39.0393 2.51747 39.6392 2.66469 40.2281L3.05275 40.1311C2.91413 39.5766 2.85053 39.0071 2.83779 38.4341L2.43789 38.443ZM2.41186 22.198L2.43784 38.4389L2.83784 38.4382L2.81186 22.1974L2.41186 22.198ZM3.41555 18.5596C2.74652 19.6568 2.39848 20.9149 2.41187 22.1998L2.81185 22.1956C2.79925 20.986 3.12683 19.8014 3.75707 18.7678L3.41555 18.5596ZM18.6367 28.1884L3.69515 18.4959L3.47746 18.8315L18.419 28.524L18.6367 28.1884ZM2.97918 40.3392L18.6484 28.5159L18.4074 28.1966L2.73825 40.0199L2.97918 40.3392ZM3.23023 41.772C4.00752 43.1493 5.5046 44.3423 8.30265 44.3423V43.9423C5.64378 43.9423 4.28246 42.8227 3.57859 41.5754L3.23023 41.772ZM19.7847 29.0671L3.28397 41.5141L3.52485 41.8334L20.0256 29.3864L19.7847 29.0671ZM24.3536 31.8784L20.0141 29.059L19.7962 29.3945L24.1357 32.2139L24.3536 31.8784ZM24.5825 31.9241C24.4946 31.9241 24.4086 31.9045 24.3341 31.8673L24.1552 32.225C24.2887 32.2918 24.4365 32.3241 24.5825 32.3241V31.9241ZM24.8308 31.8673C24.7564 31.9045 24.6703 31.9241 24.5825 31.9241V32.3241C24.7285 32.3241 24.8763 32.2918 25.0097 32.225L24.8308 31.8673ZM29.0472 29.1368L24.8116 31.8783L25.029 32.2141L29.2646 29.4726L29.0472 29.1368ZM45.8419 41.6179L29.2762 29.1449L29.0356 29.4645L45.6013 41.9374L45.8419 41.6179ZM41.0702 44.3553C42.9793 44.3553 44.7677 43.441 45.8837 41.8947L45.5594 41.6606C44.5186 43.1026 42.851 43.9553 41.0702 43.9553V44.3553ZM8.30257 44.3423L41.0701 44.3553L41.0703 43.9553L8.30273 43.9423L8.30257 44.3423ZM46.961 38.4387L46.974 22.1979L46.574 22.1975L46.561 38.4384L46.961 38.4387ZM46.7209 40.359C46.881 39.732 46.961 39.0917 46.961 38.4386H46.561C46.561 39.0587 46.4851 39.6657 46.3333 40.26L46.7209 40.359ZM30.6336 28.5809L46.4067 40.4692L46.6475 40.1498L30.8744 28.2615L30.6336 28.5809ZM45.6907 18.4959L30.6452 28.2534L30.8628 28.589L45.9083 18.8315L45.6907 18.4959ZM46.9738 22.206C47.0275 20.9171 46.6784 19.6416 45.9669 18.5542L45.6322 18.7732C46.2979 19.7906 46.6244 20.9837 46.5741 22.1894L46.9738 22.206ZM25.614 17.6505V10.1017H25.214V17.6505H25.614ZM24.6735 18.591C25.1867 18.591 25.614 18.1637 25.614 17.6505H25.214C25.214 17.9428 24.9658 18.191 24.6735 18.191V18.591ZM23.7329 17.6505C23.7329 18.1637 24.1602 18.591 24.6735 18.591V18.191C24.3811 18.191 24.1329 17.9428 24.1329 17.6505H23.7329ZM23.7329 11.5309V17.6505H24.1329V11.5309H23.7329ZM23.1273 11.8998C23.418 11.8998 23.7292 11.8278 24.0072 11.7166L23.8586 11.3452C23.6168 11.4419 23.3564 11.4998 23.1273 11.4998V11.8998ZM22.1867 10.9592C22.1867 11.4725 22.6141 11.8998 23.1273 11.8998V11.4998C22.835 11.4998 22.5868 11.2516 22.5868 10.9592H22.1867ZM23.1273 10.0187C22.6141 10.0187 22.1867 10.446 22.1867 10.9592H22.5868C22.5868 10.6669 22.835 10.4187 23.1273 10.4187V10.0187ZM23.9281 9.54092C23.8183 9.68914 23.6667 9.8109 23.5122 9.89534C23.3542 9.98164 23.2123 10.0187 23.1273 10.0187V10.4187C23.3022 10.4187 23.5111 10.3517 23.7039 10.2464C23.9002 10.1392 24.0994 9.9816 24.2495 9.77901L23.9281 9.54092ZM24.1018 9.44697C24.0635 9.44697 24.0216 9.45711 23.9833 9.48259C23.9464 9.50723 23.9242 9.53866 23.9115 9.56401C23.8993 9.58857 23.8941 9.61071 23.8917 9.62503C23.8904 9.63266 23.8897 9.63946 23.8893 9.64513C23.8891 9.648 23.889 9.65067 23.8889 9.65313C23.8889 9.65436 23.8888 9.65554 23.8888 9.65668C23.8888 9.65724 23.8888 9.6578 23.8888 9.65834C23.8888 9.65861 23.8888 9.65888 23.8888 9.65915C23.8888 9.65928 23.8888 9.65941 23.8888 9.65954C23.8888 9.65961 23.8888 9.65971 23.8888 9.65974C23.8888 9.65984 23.8888 9.65994 24.0888 9.65997C24.2888 9.66 24.2888 9.66009 24.2888 9.66019C24.2888 9.66022 24.2888 9.66032 24.2888 9.66039C24.2888 9.66052 24.2888 9.66065 24.2888 9.66078C24.2888 9.66104 24.2888 9.66131 24.2888 9.66157C24.2888 9.66211 24.2888 9.66264 24.2888 9.66318C24.2887 9.66427 24.2887 9.66538 24.2887 9.66651C24.2886 9.66878 24.2885 9.67117 24.2883 9.67369C24.2879 9.67865 24.2873 9.68443 24.2863 9.69084C24.2843 9.70272 24.2799 9.72162 24.2693 9.74293C24.2582 9.76503 24.2385 9.79321 24.2052 9.81542C24.1706 9.83846 24.1335 9.84697 24.1018 9.84697V9.44697ZM24.1278 9.42099C24.0562 9.42099 24.0014 9.45475 23.9685 9.48769C23.9355 9.52064 23.9018 9.57544 23.9018 9.64697H24.3018C24.3018 9.70552 24.2745 9.74732 24.2513 9.77053C24.2281 9.79373 24.1863 9.82099 24.1278 9.82099V9.42099ZM24.0123 9.44059C24.0084 9.44447 23.991 9.46141 23.9759 9.4815C23.9624 9.49949 23.9278 9.54923 23.9278 9.62099H24.3278C24.3278 9.6515 24.3201 9.67572 24.3132 9.69141C24.3066 9.70665 24.2993 9.71691 24.2959 9.7215C24.2906 9.7286 24.2861 9.73254 24.2952 9.72343L24.0123 9.44059ZM24.0383 9.41461L24.0123 9.44059L24.2952 9.72343L24.3212 9.69744L24.0383 9.41461ZM24.0249 9.43907C24.0231 9.44201 24.0254 9.43812 24.0286 9.43362C24.0322 9.42859 24.0406 9.41722 24.0541 9.40491C24.0686 9.39169 24.0881 9.37814 24.1129 9.36856C24.1375 9.35907 24.1607 9.35603 24.1797 9.35603V9.75603C24.2332 9.75603 24.2842 9.73641 24.3236 9.70046C24.3394 9.68606 24.3499 9.67216 24.3554 9.66427C24.3606 9.6569 24.3649 9.64983 24.3652 9.64933L24.0249 9.43907ZM24.0643 9.38861C24.0413 9.41167 24.0277 9.43467 24.025 9.43902L24.3652 9.64939C24.3677 9.64526 24.3603 9.65834 24.3471 9.67148L24.0643 9.38861ZM24.0773 9.38212C24.073 9.38637 24.0881 9.36998 24.1105 9.35651C24.1389 9.33948 24.172 9.33004 24.2057 9.33004V9.73004C24.3002 9.73004 24.3548 9.67031 24.3601 9.66497L24.0773 9.38212ZM24.2317 9.31705C24.1373 9.31705 24.0826 9.37677 24.0773 9.38212L24.3601 9.66497C24.3644 9.66072 24.3493 9.67711 24.3269 9.69058C24.2985 9.70761 24.2655 9.71705 24.2317 9.71705V9.31705ZM24.2707 9.29106C24.1989 9.29106 24.1492 9.32569 24.1312 9.33918C24.1111 9.35425 24.0942 9.37174 24.0903 9.37563L24.3731 9.65847C24.3822 9.64936 24.3783 9.65386 24.3712 9.65919C24.3666 9.66263 24.3563 9.66986 24.3411 9.67653C24.3254 9.68339 24.3012 9.69106 24.2707 9.69106V9.29106ZM24.1552 9.32366L24.1293 9.34965L24.4121 9.63248L24.4381 9.60649L24.1552 9.32366ZM24.1942 9.29767C24.1851 9.30678 24.1891 9.30228 24.1962 9.29696C24.2008 9.29351 24.211 9.28628 24.2263 9.27961C24.2419 9.27275 24.2662 9.26508 24.2967 9.26508V9.66508C24.3684 9.66508 24.4182 9.63045 24.4362 9.61696C24.4563 9.60189 24.4732 9.58439 24.4771 9.58051L24.1942 9.29767ZM24.2332 9.28468C24.2529 9.265 24.2787 9.25042 24.3066 9.24344C24.3278 9.23814 24.3459 9.23909 24.3357 9.23909V9.63909C24.3516 9.63909 24.4409 9.6427 24.5161 9.56752L24.2332 9.28468ZM24.4006 9.21311C24.334 9.21311 24.2866 9.2433 24.2718 9.25319C24.2611 9.2603 24.2526 9.26712 24.2467 9.27221C24.2436 9.27485 24.241 9.27726 24.2388 9.27933C24.2376 9.28037 24.2366 9.28134 24.2357 9.28223C24.2352 9.28267 24.2348 9.2831 24.2344 9.28351C24.2342 9.28371 24.234 9.28391 24.2338 9.28411C24.2337 9.2842 24.2336 9.2843 24.2335 9.28439C24.2334 9.28444 24.2334 9.28449 24.2334 9.28453C24.2333 9.28456 24.2333 9.28459 24.2333 9.2846C24.2332 9.28464 24.2332 9.28467 24.3746 9.4261C24.516 9.56753 24.516 9.56756 24.516 9.56759C24.516 9.56761 24.5159 9.56764 24.5159 9.56766C24.5159 9.56771 24.5158 9.56776 24.5158 9.5678C24.5157 9.56789 24.5156 9.56798 24.5155 9.56807C24.5153 9.56826 24.5151 9.56844 24.5149 9.56861C24.5146 9.56897 24.5142 9.56933 24.5139 9.56968C24.5131 9.57038 24.5124 9.57107 24.5117 9.57176C24.5102 9.57311 24.5087 9.57451 24.507 9.57592C24.5039 9.57858 24.4995 9.58215 24.4937 9.58601C24.4882 9.58966 24.4786 9.59551 24.4654 9.60083C24.4525 9.60598 24.43 9.61311 24.4006 9.61311V9.21311ZM24.4396 9.20011C24.4236 9.20011 24.3344 9.19651 24.2592 9.27168L24.542 9.55453C24.5224 9.5742 24.4965 9.58878 24.4686 9.59576C24.4474 9.60106 24.4294 9.60011 24.4396 9.60011V9.20011ZM24.4786 9.18712C24.4626 9.18712 24.3733 9.18352 24.2982 9.25869L24.581 9.54154C24.5613 9.56122 24.5355 9.5758 24.5076 9.58277C24.4864 9.58807 24.4684 9.58712 24.4786 9.58712V9.18712ZM24.5175 9.17413C24.5016 9.17413 24.4123 9.17053 24.3371 9.2457L24.62 9.52854C24.6003 9.54822 24.5745 9.5628 24.5466 9.56978C24.5254 9.57508 24.5073 9.57413 24.5175 9.57413V9.17413ZM24.4476 9.18875C24.4425 9.19131 24.4487 9.18795 24.4571 9.18483C24.4663 9.18139 24.488 9.17413 24.5175 9.17413V9.57413C24.5535 9.57413 24.5818 9.56525 24.5975 9.55937C24.6123 9.55381 24.6251 9.5472 24.6265 9.54652L24.4476 9.18875ZM24.5565 9.16114C24.5205 9.16114 24.4922 9.17002 24.4766 9.1759C24.4617 9.18146 24.4489 9.18807 24.4476 9.18875L24.6265 9.54652C24.6316 9.54395 24.6253 9.54731 24.617 9.55043C24.6078 9.55387 24.586 9.56114 24.5565 9.56114V9.16114ZM24.5955 9.16114H24.5565V9.56114H24.5955V9.16114ZM24.6345 9.14814C24.6185 9.14814 24.5293 9.14455 24.4541 9.21971L24.7369 9.50256C24.7173 9.52223 24.6914 9.53681 24.6635 9.54379C24.6423 9.54909 24.6243 9.54814 24.6345 9.54814V9.14814ZM24.6605 9.14814H24.6345V9.54814H24.6605V9.14814ZM24.7124 9.14814H24.6605V9.54814H24.7124V9.14814ZM24.7254 9.14814H24.7124V9.54814H24.7254V9.14814ZM24.7384 9.14814H24.7254V9.54814H24.7384V9.14814ZM24.7904 9.14814H24.7384V9.54814H24.7904V9.14814ZM24.8294 9.14814H24.7904V9.54814H24.8294V9.14814ZM25.0098 9.21971C24.9346 9.14455 24.8454 9.14814 24.8294 9.14814V9.54814C24.8396 9.54814 24.8215 9.54909 24.8003 9.54379C24.7724 9.53681 24.7466 9.52223 24.7269 9.50256L25.0098 9.21971ZM24.9073 9.16114H24.8684V9.56114H24.9073V9.16114ZM25.0163 9.18875C25.0149 9.18807 25.0021 9.18146 24.9873 9.1759C24.9716 9.17002 24.9433 9.16114 24.9073 9.16114V9.56114C24.8778 9.56114 24.856 9.55387 24.8469 9.55044C24.8385 9.54731 24.8322 9.54395 24.8374 9.54652L25.0163 9.18875ZM24.9463 9.17413C24.9758 9.17413 24.9976 9.18139 25.0068 9.18483C25.0151 9.18795 25.0214 9.19131 25.0163 9.18875L24.8374 9.54652C24.8387 9.5472 24.8515 9.55381 24.8663 9.55937C24.882 9.56524 24.9103 9.57413 24.9463 9.57413V9.17413ZM25.0552 9.20174C25.0539 9.20106 25.0411 9.19445 25.0263 9.18889C25.0106 9.18301 24.9823 9.17413 24.9463 9.17413V9.57413C24.9168 9.57413 24.895 9.56686 24.8858 9.56342C24.8775 9.5603 24.8712 9.55694 24.8764 9.55951L25.0552 9.20174ZM24.9853 9.18712C25.0148 9.18712 25.0366 9.19438 25.0458 9.19782C25.0541 9.20095 25.0604 9.20431 25.0552 9.20174L24.8764 9.55951C24.8777 9.56019 24.8905 9.5668 24.9053 9.57236C24.921 9.57823 24.9493 9.58712 24.9853 9.58712V9.18712ZM25.0113 9.40011C25.1527 9.25869 25.1527 9.25865 25.1526 9.25862C25.1526 9.25861 25.1526 9.25857 25.1525 9.25855C25.1525 9.2585 25.1525 9.25845 25.1524 9.25841C25.1523 9.25831 25.1522 9.25822 25.1521 9.25812C25.1519 9.25793 25.1517 9.25773 25.1515 9.25752C25.1511 9.25711 25.1507 9.25669 25.1502 9.25624C25.1493 9.25535 25.1483 9.25438 25.1471 9.25334C25.1449 9.25127 25.1423 9.24886 25.1392 9.24623C25.1332 9.24114 25.1248 9.23432 25.1141 9.2272C25.0993 9.21731 25.0519 9.18712 24.9853 9.18712V9.58712C24.9559 9.58712 24.9334 9.58 24.9206 9.57485C24.9073 9.56953 24.8977 9.56368 24.8922 9.56003C24.8864 9.55617 24.882 9.55259 24.8789 9.54994C24.8772 9.54852 24.8757 9.54713 24.8742 9.54577C24.8735 9.54508 24.8728 9.54439 24.872 9.54369C24.8717 9.54334 24.8713 9.54299 24.871 9.54263C24.8708 9.54245 24.8706 9.54227 24.8704 9.54209C24.8703 9.542 24.8702 9.54191 24.8701 9.54181C24.8701 9.54177 24.87 9.54172 24.87 9.54168C24.87 9.54165 24.8699 9.54162 24.8699 9.54161C24.8699 9.54157 24.8699 9.54154 25.0113 9.40011ZM25.1202 9.22772C25.1189 9.22705 25.1061 9.22044 25.0912 9.21488C25.0756 9.209 25.0473 9.20011 25.0113 9.20011V9.60011C24.9818 9.60011 24.96 9.59285 24.9508 9.58941C24.9425 9.58629 24.9362 9.58292 24.9413 9.58549L25.1202 9.22772ZM25.0502 9.21311C25.0798 9.21311 25.1016 9.22037 25.1107 9.22381C25.1191 9.22693 25.1253 9.2303 25.1202 9.22772L24.9413 9.58549C24.9427 9.58617 24.9555 9.59278 24.9703 9.59834C24.986 9.60422 25.0142 9.61311 25.0502 9.61311V9.21311ZM25.1592 9.24072C25.1578 9.24005 25.1451 9.23343 25.1302 9.22787C25.1146 9.22199 25.0863 9.21311 25.0502 9.21311V9.61311C25.0207 9.61311 24.9989 9.60584 24.9898 9.6024C24.9814 9.59927 24.9751 9.59591 24.9803 9.59849L25.1592 9.24072ZM25.0892 9.2261C25.1187 9.2261 25.1405 9.23337 25.1497 9.23681C25.158 9.23993 25.1643 9.24329 25.1592 9.24072L24.9803 9.59849C24.9816 9.59916 24.9944 9.60577 25.0092 9.61133C25.0249 9.61721 25.0532 9.6261 25.0892 9.6261V9.2261ZM25.2391 9.28567L25.2002 9.25969L24.9783 9.59251L25.0173 9.6185L25.2391 9.28567ZM25.2826 9.31716C25.2773 9.31181 25.2226 9.25208 25.1282 9.25208V9.65208C25.0944 9.65208 25.0614 9.64264 25.033 9.62561C25.0106 9.61214 24.9955 9.59575 24.9998 9.6L25.2826 9.31716ZM25.1542 9.26508C25.188 9.26508 25.221 9.27452 25.2494 9.29155C25.2718 9.30503 25.2869 9.32143 25.2827 9.3172L24.9997 9.59996C25.0051 9.60535 25.0597 9.66508 25.1542 9.66508V9.26508ZM25.1932 9.29106C25.2237 9.29106 25.2479 9.29873 25.2636 9.3056C25.2788 9.31227 25.2891 9.3195 25.2937 9.32294C25.3008 9.32826 25.3047 9.33276 25.2956 9.32365L25.0128 9.6065C25.0166 9.61038 25.0336 9.62788 25.0537 9.64294C25.0717 9.65643 25.1214 9.69106 25.1932 9.69106V9.29106ZM25.2062 9.50406C25.2061 9.30405 25.2062 9.30405 25.2063 9.30405C25.2064 9.30405 25.2065 9.30406 25.2065 9.30406C25.2067 9.30406 25.2068 9.30406 25.2069 9.30406C25.2072 9.30406 25.2075 9.30406 25.2077 9.30406C25.2083 9.30406 25.2088 9.30407 25.2093 9.30408C25.2104 9.3041 25.2115 9.30412 25.2127 9.30416C25.2149 9.30424 25.2173 9.30436 25.2198 9.30454C25.2248 9.30489 25.2306 9.3055 25.237 9.30657C25.2489 9.30855 25.2678 9.31288 25.2891 9.32353C25.3112 9.33458 25.3394 9.3543 25.3616 9.38762C25.3847 9.42219 25.3932 9.45931 25.3932 9.49106H24.9932C24.9932 9.52931 25.0033 9.5713 25.0288 9.60953C25.0535 9.64651 25.0849 9.66866 25.1102 9.68133C25.1348 9.69361 25.157 9.69875 25.1713 9.70113C25.1789 9.7024 25.1857 9.70312 25.1914 9.70352C25.1942 9.70373 25.1969 9.70386 25.1994 9.70394C25.2006 9.70398 25.2018 9.70401 25.2029 9.70403C25.2035 9.70404 25.204 9.70404 25.2046 9.70405C25.2049 9.70405 25.2051 9.70405 25.2054 9.70405C25.2055 9.70405 25.2057 9.70405 25.2058 9.70405C25.2058 9.70405 25.2059 9.70405 25.206 9.70405C25.2061 9.70405 25.2062 9.70405 25.2062 9.50406ZM25.2192 9.51705C25.4192 9.51705 25.4192 9.51695 25.4192 9.51685C25.4192 9.51682 25.4192 9.51672 25.4192 9.51665C25.4192 9.51652 25.4192 9.51639 25.4192 9.51626C25.4191 9.51599 25.4191 9.51572 25.4191 9.51545C25.4191 9.51491 25.4191 9.51435 25.4191 9.51379C25.4191 9.51265 25.4191 9.51147 25.419 9.51024C25.419 9.50779 25.4188 9.50511 25.4186 9.50224C25.4182 9.49657 25.4175 9.48977 25.4162 9.48214C25.4138 9.46783 25.4087 9.44568 25.3964 9.42112C25.3837 9.39577 25.3616 9.36434 25.3246 9.33968C25.2864 9.31419 25.2444 9.30405 25.2062 9.30405V9.70405C25.1744 9.70405 25.1373 9.69554 25.1027 9.67249C25.0694 9.65027 25.0497 9.62208 25.0386 9.59998C25.028 9.57867 25.0236 9.55977 25.0217 9.54789C25.0206 9.54148 25.02 9.5357 25.0196 9.53074C25.0195 9.52822 25.0193 9.52583 25.0193 9.52356C25.0192 9.52243 25.0192 9.52132 25.0192 9.52024C25.0192 9.51969 25.0192 9.51916 25.0192 9.51863C25.0192 9.51836 25.0192 9.5181 25.0192 9.51783C25.0192 9.5177 25.0192 9.51757 25.0192 9.51744C25.0192 9.51737 25.0192 9.51728 25.0192 9.51724C25.0192 9.51715 25.0192 9.51705 25.2192 9.51705ZM25.3691 9.37662L25.3301 9.35064L25.1082 9.68346L25.1472 9.70944L25.3691 9.37662ZM25.3751 9.38824C25.3722 9.38642 25.376 9.38874 25.3805 9.39191C25.3856 9.39546 25.3969 9.40386 25.4092 9.41735C25.4225 9.43186 25.436 9.45139 25.4456 9.4762C25.4551 9.50079 25.4581 9.52396 25.4581 9.54303H25.0581C25.0581 9.59652 25.0777 9.64747 25.1137 9.68689C25.1281 9.70268 25.142 9.71315 25.1499 9.71871C25.1572 9.72391 25.1643 9.7282 25.1648 9.7285L25.3751 9.38824ZM25.4255 9.42758C25.4025 9.40454 25.3795 9.39097 25.3751 9.38825L25.1648 9.72849C25.1689 9.73101 25.1558 9.72357 25.1427 9.71045L25.4255 9.42758ZM25.4515 9.45358L25.4255 9.42759L25.1427 9.71044L25.1687 9.73643L25.4515 9.45358ZM25.502 9.52505C25.4987 9.51848 25.4832 9.48531 25.4515 9.45358L25.1687 9.73643C25.15 9.71769 25.141 9.69751 25.1442 9.70394L25.502 9.52505ZM25.4775 9.49255C25.4962 9.51129 25.5052 9.53147 25.502 9.52505L25.1442 9.70394C25.1475 9.7105 25.1629 9.74369 25.1947 9.77541L25.4775 9.49255ZM25.4905 9.49906C25.4852 9.49372 25.4305 9.43398 25.3361 9.43398V9.83398C25.3023 9.83398 25.2693 9.82454 25.2409 9.8075C25.2185 9.79404 25.2034 9.77765 25.2077 9.7819L25.4905 9.49906ZM25.3621 9.44697C25.3958 9.44697 25.4289 9.45641 25.4573 9.47344C25.4797 9.48691 25.4948 9.50331 25.4905 9.49906L25.2077 9.7819C25.213 9.78725 25.2676 9.84697 25.3621 9.84697V9.44697ZM25.5295 9.54453C25.5204 9.53542 25.5249 9.53937 25.5302 9.54646C25.5336 9.55106 25.5409 9.56132 25.5475 9.57656C25.5544 9.59225 25.5621 9.61646 25.5621 9.64697H25.1621C25.1621 9.71873 25.1967 9.76848 25.2102 9.78646C25.2253 9.80655 25.2428 9.82349 25.2466 9.82737L25.5295 9.54453ZM25.4011 9.71194C25.5425 9.57051 25.5425 9.57055 25.5425 9.57058C25.5425 9.57059 25.5426 9.57063 25.5426 9.57065C25.5427 9.57069 25.5427 9.57074 25.5427 9.57079C25.5428 9.57088 25.5429 9.57097 25.543 9.57106C25.5432 9.57124 25.5434 9.57143 25.5436 9.57161C25.5439 9.57197 25.5443 9.57234 25.5446 9.5727C25.5453 9.57342 25.546 9.57415 25.5467 9.57489C25.5481 9.57634 25.5494 9.57789 25.5509 9.57954C25.5535 9.58264 25.5571 9.58708 25.561 9.59287C25.5646 9.59835 25.5705 9.60792 25.5758 9.62121C25.5809 9.6341 25.5881 9.65661 25.5881 9.68595H25.1881C25.1881 9.75257 25.2183 9.79993 25.2281 9.81476C25.2353 9.82543 25.2421 9.83393 25.2472 9.83987C25.2498 9.84294 25.2522 9.84561 25.2543 9.84782C25.2553 9.84894 25.2563 9.84996 25.2572 9.85088C25.2576 9.85134 25.2581 9.85178 25.2585 9.85219C25.2587 9.8524 25.2589 9.8526 25.2591 9.85279C25.2592 9.85289 25.2593 9.85299 25.2594 9.85308C25.2594 9.85313 25.2594 9.85318 25.2595 9.85322C25.2595 9.85325 25.2596 9.85328 25.2596 9.85329C25.2596 9.85333 25.2596 9.85336 25.4011 9.71194ZM25.5934 9.63998L25.5675 9.601L25.2346 9.82288L25.2606 9.86186L25.5934 9.63998ZM25.6124 9.68096C25.6098 9.67582 25.6132 9.68211 25.6163 9.69044C25.6198 9.69961 25.627 9.7214 25.627 9.75092H25.227C25.227 9.78693 25.2359 9.81521 25.2418 9.83088C25.2474 9.84571 25.254 9.8585 25.2546 9.85985L25.6124 9.68096ZM25.64 9.78989C25.64 9.75388 25.6311 9.72559 25.6253 9.70992C25.6197 9.6951 25.6131 9.68231 25.6124 9.68096L25.2546 9.85985C25.2572 9.865 25.2539 9.85871 25.2507 9.85038C25.2473 9.8412 25.24 9.81941 25.24 9.78989H25.64ZM25.653 9.82887C25.653 9.81293 25.6566 9.72365 25.5815 9.64847L25.2986 9.93132C25.2789 9.91163 25.2643 9.88579 25.2574 9.85788C25.2521 9.83668 25.253 9.81865 25.253 9.82887H25.653ZM25.6454 9.75691L25.6194 9.71793L25.2866 9.93981L25.3126 9.97879L25.6454 9.75691ZM25.6334 9.75241C25.6514 9.77035 25.6633 9.79166 25.6704 9.81273C25.6738 9.82291 25.6759 9.83271 25.6772 9.8418C25.6779 9.84636 25.6783 9.85081 25.6786 9.85513C25.6787 9.85729 25.6788 9.85943 25.6789 9.86155C25.6789 9.86261 25.679 9.86366 25.679 9.86471C25.679 9.86524 25.679 9.86576 25.679 9.86628C25.679 9.86655 25.679 9.86681 25.679 9.86707C25.679 9.8672 25.679 9.86733 25.679 9.86746C25.679 9.86752 25.679 9.86762 25.679 9.86765C25.679 9.86775 25.679 9.86785 25.479 9.86785C25.279 9.86785 25.279 9.86795 25.279 9.86805C25.279 9.86808 25.279 9.86818 25.279 9.86824C25.279 9.86837 25.279 9.8685 25.279 9.86864C25.279 9.8689 25.279 9.86917 25.279 9.86943C25.279 9.86997 25.279 9.87051 25.279 9.87106C25.279 9.87216 25.2791 9.87329 25.2791 9.87445C25.2792 9.87676 25.2793 9.87919 25.2795 9.88174C25.2798 9.88682 25.2804 9.89239 25.2812 9.89837C25.2829 9.9103 25.2859 9.92416 25.2909 9.93922C25.3012 9.97003 25.3196 10.0043 25.3506 10.0353L25.6334 9.75241ZM25.692 9.93281V9.89384H25.292V9.93281H25.692ZM25.705 9.97179C25.705 9.9558 25.7086 9.86655 25.6334 9.79139L25.3506 10.0742C25.3309 10.0546 25.3163 10.0287 25.3093 10.0008C25.304 9.97962 25.305 9.96159 25.305 9.97179H25.705ZM25.6904 9.90184C25.6878 9.89669 25.6912 9.90298 25.6943 9.91131C25.6977 9.92049 25.705 9.94228 25.705 9.97179H25.305C25.305 10.0078 25.3139 10.0361 25.3198 10.0518C25.3253 10.0666 25.3319 10.0794 25.3326 10.0807L25.6904 9.90184ZM25.718 10.0108C25.718 9.97476 25.7091 9.94648 25.7032 9.93081C25.6977 9.916 25.6911 9.90321 25.6904 9.90188L25.3326 10.0807C25.3352 10.0858 25.3318 10.0796 25.3287 10.0712C25.3252 10.0621 25.318 10.0403 25.318 10.0108H25.718ZM25.718 10.0497V10.0108H25.318V10.0497H25.718ZM25.718 10.0887V10.0497H25.318V10.0887H25.718ZM25.4647 10.2907C25.4712 10.2912 25.492 10.293 25.5108 10.2925C25.518 10.2924 25.5438 10.2919 25.5733 10.2829C25.588 10.2784 25.62 10.2671 25.6511 10.239C25.6881 10.2056 25.718 10.1531 25.718 10.0887H25.318C25.318 10.0257 25.3473 9.97433 25.3833 9.94189C25.4133 9.91478 25.4437 9.90422 25.4564 9.90034C25.482 9.89253 25.502 9.89264 25.5021 9.89264C25.5067 9.89254 25.5082 9.89286 25.4939 9.89181L25.4647 10.2907ZM25.614 10.1017C25.614 10.142 25.6012 10.1826 25.5758 10.2166C25.5525 10.2478 25.5253 10.2645 25.508 10.273C25.4772 10.2881 25.4519 10.2893 25.4511 10.2894C25.4454 10.2898 25.4449 10.2893 25.4647 10.2907L25.4939 9.89181C25.4841 9.89109 25.451 9.88818 25.4201 9.89058C25.4066 9.89162 25.3706 9.89491 25.3322 9.91371C25.3111 9.92404 25.2809 9.94308 25.2555 9.97703C25.228 10.0138 25.214 10.0576 25.214 10.1017H25.614ZM24.6735 22.4657C19.9506 22.4657 16.1034 18.6185 16.1034 13.8956H15.7034C15.7034 18.8394 19.7297 22.8657 24.6735 22.8657V22.4657ZM33.2435 13.8956C33.2435 18.6187 29.4091 22.4657 24.6735 22.4657V22.8657C29.6304 22.8657 33.6435 18.8392 33.6435 13.8956H33.2435ZM24.6735 5.32559C29.3963 5.32559 33.2435 9.17283 33.2435 13.8956H33.6435C33.6435 8.95191 29.6172 4.92559 24.6735 4.92559V5.32559ZM16.1034 13.8956C16.1034 9.17283 19.9506 5.32559 24.6735 5.32559V4.92559C19.7297 4.92559 15.7034 8.95191 15.7034 13.8956H16.1034ZM24.6735 6.47172C20.5872 6.47172 17.2625 9.79644 17.2625 13.8827H17.6625C17.6625 10.0174 20.8082 6.87172 24.6735 6.87172V6.47172ZM32.0844 13.8833C32.0977 9.79622 28.7723 6.47172 24.6735 6.47172V6.87172C28.5521 6.87172 31.697 10.0176 31.6844 13.882L32.0844 13.8833ZM24.6735 21.2936C28.7597 21.2936 32.0844 17.9689 32.0844 13.8827H31.6844C31.6844 17.748 28.5388 20.8936 24.6735 20.8936V21.2936ZM17.2625 13.8827C17.2625 17.9689 20.5872 21.2936 24.6735 21.2936V20.8936C20.8082 20.8936 17.6625 17.748 17.6625 13.8827H17.2625Z" fill="black"/>
</svg>
