<svg width="358" height="307" viewBox="0 0 358 307" fill="none" xmlns="http://www.w3.org/2000/svg">
<path d="M208.071 279.417C197.674 274.503 193.522 262.827 192.055 251.946C191.808 250.139 191.289 248.26 191.88 246.526C192.472 244.792 194.294 243.371 196.044 243.858C197.499 244.262 198.35 245.725 199.321 246.869C200.617 248.421 202.326 249.576 204.251 250.199C205.501 250.603 206.991 250.723 208.023 249.91C209.435 248.784 209.23 246.598 208.94 244.81C208.349 241.462 207.76 238.118 207.172 234.778C206.764 233.002 206.643 231.172 206.816 229.358C207.088 227.551 208.053 225.745 209.683 224.998C211.312 224.251 213.599 224.854 214.257 226.552C214.454 227.283 214.599 228.028 214.691 228.78C214.866 229.521 215.355 230.285 216.098 230.37C216.84 230.454 217.485 229.828 217.938 229.213C219.489 227.088 220.352 224.541 221.136 222.017C221.921 219.494 222.657 216.923 224.009 214.659C225.361 212.395 227.425 210.444 229.977 209.841C232.53 209.239 235.547 210.383 236.615 212.804C237.684 215.225 236.652 218.043 235.408 220.361C233.533 223.805 231.169 226.961 228.39 229.731C227.835 230.176 227.436 230.786 227.25 231.472C227.056 232.736 228.396 233.73 229.663 233.922C231.076 234.145 232.512 233.76 233.942 233.688C235.372 233.615 237.002 233.977 237.756 235.211C238.8 236.921 237.587 239.107 236.289 240.631C233.688 243.671 230.578 246.238 227.099 248.218C225.856 248.929 224.534 249.585 223.623 250.693C222.712 251.801 222.343 253.529 223.2 254.686C224.057 255.842 225.789 255.968 227.129 255.474C228.469 254.981 229.585 254.023 230.828 253.301C233.139 251.952 236.362 251.584 238.311 253.451C238.919 254.104 239.367 254.888 239.62 255.743C239.872 256.598 239.922 257.5 239.765 258.377C239.444 260.125 238.773 261.79 237.792 263.273C234.668 268.633 230.174 273.07 224.769 276.129C219.338 279.086 214.142 280.519 208.09 279.399" fill="#F5F5F5"/>
<path d="M209.719 272.167C210.519 265.969 211.675 259.823 213.183 253.758L214.341 248.977C214.721 247.411 215.102 245.858 215.548 244.358C216.447 241.491 217.504 238.677 218.716 235.928C219.857 233.284 221.034 230.821 222.15 228.527C223.267 226.233 224.359 224.113 225.433 222.222C227.12 219.227 229.041 216.37 231.178 213.677C231.932 212.726 232.542 212.009 232.958 211.527L233.435 210.985C233.55 210.865 233.604 210.805 233.61 210.805C233.57 210.879 233.522 210.947 233.465 211.009C233.35 211.148 233.2 211.335 233.013 211.575C232.608 212.069 232.017 212.78 231.281 213.761C229.198 216.473 227.32 219.335 225.662 222.324C224.606 224.215 223.532 226.335 222.422 228.635C221.311 230.936 220.153 233.398 219.024 236.03C217.824 238.78 216.776 241.595 215.886 244.46C215.422 245.948 215.047 247.471 214.679 249.061L213.521 253.836C212.021 259.89 210.858 266.021 210.039 272.203" fill="#E0E0E0"/>
<path d="M215.663 244.328C215.53 244.097 215.426 243.85 215.355 243.593C215.18 243.112 214.945 242.389 214.667 241.54C214.106 239.794 213.418 237.325 212.67 234.669C211.921 232.013 211.203 229.557 210.618 227.822C210.328 226.955 210.087 226.257 209.918 225.775C209.816 225.53 209.737 225.276 209.683 225.016C209.832 225.236 209.952 225.475 210.039 225.727C210.25 226.196 210.527 226.883 210.841 227.744C211.487 229.46 212.247 231.881 212.996 234.573C213.744 237.264 214.384 239.631 214.89 241.468C215.126 242.299 215.325 242.991 215.494 243.551C215.58 243.803 215.637 244.063 215.663 244.328Z" fill="#E0E0E0"/>
<path d="M238.07 236.108C237.779 236.225 237.478 236.314 237.17 236.373C236.567 236.53 235.734 236.747 234.696 237.048C232.614 237.65 229.772 238.541 226.676 239.685C223.58 240.829 220.823 241.986 218.831 242.883C217.841 243.323 217.021 243.702 216.502 243.955C216.229 244.111 215.94 244.237 215.639 244.328C215.893 244.142 216.164 243.978 216.447 243.84C216.972 243.545 217.751 243.136 218.729 242.636C220.678 241.679 223.43 240.486 226.531 239.336C229.18 238.349 231.877 237.497 234.612 236.783C235.662 236.512 236.519 236.331 237.116 236.217C237.43 236.152 237.749 236.115 238.07 236.108Z" fill="#E0E0E0"/>
<path d="M209.93 271.691C209.852 271.616 209.783 271.531 209.725 271.438L209.188 270.667C208.723 269.999 208.077 269.011 207.299 267.783C205.73 265.326 203.678 261.864 201.464 258.016C199.249 254.168 197.239 250.687 195.712 248.2L193.902 245.261L193.419 244.461C193.358 244.368 193.307 244.269 193.268 244.166C193.268 244.166 193.347 244.25 193.474 244.424C193.6 244.599 193.799 244.882 194.011 245.189C194.475 245.858 195.121 246.845 195.906 248.074C197.469 250.531 199.526 253.993 201.741 257.847C203.956 261.701 205.965 265.17 207.486 267.657L209.296 270.595C209.49 270.92 209.653 271.197 209.785 271.402C209.846 271.491 209.895 271.589 209.93 271.691Z" fill="#E0E0E0"/>
<path d="M239.023 256.612C239.023 256.612 238.932 256.685 238.739 256.787L237.901 257.239L234.799 258.858C232.168 260.225 228.565 262.158 224.582 264.278C220.599 266.398 216.966 268.319 214.323 269.637C212.99 270.294 211.909 270.842 211.161 271.161L210.286 271.552C210.187 271.605 210.082 271.643 209.972 271.667C210.059 271.597 210.155 271.539 210.256 271.492L211.101 271.041L214.215 269.421C216.84 268.054 220.448 266.121 224.431 264.001C228.414 261.881 232.047 259.96 234.69 258.642C236.018 257.985 237.104 257.467 237.852 257.118L238.721 256.727C238.817 256.676 238.918 256.637 239.023 256.612Z" fill="#E0E0E0"/>
<path d="M132.614 150.165C132.614 150.165 125.445 151.159 129.47 166.828C133.495 182.496 136.911 190.577 136.911 190.577C136.911 190.577 137.448 194.124 134.581 194.016C131.715 193.908 125.867 191.607 123.888 194.672C121.83 197.87 123.629 201.73 128.112 205.77C132.596 209.811 142.137 219.018 142.994 219.849C143.851 220.68 144.478 222.409 142.511 222.65C140.544 222.89 126.592 221.252 126.217 227.907C125.843 234.561 140.218 243.756 141.769 244.768C143.32 245.779 143.579 246.616 143.217 247.513C142.855 248.411 138.232 247.423 134.243 247.122C130.255 246.821 125.578 247.164 125.68 251.024C125.783 254.884 133.332 264.633 155.365 271.878L165.793 274.569L173.499 266.994C189.008 249.784 190.704 237.578 188.875 234.181C187.047 230.785 182.841 232.796 179.497 235.042C176.154 237.288 172.654 240.462 171.906 239.83C171.157 239.197 170.964 238.396 171.797 236.728C172.63 235.06 180.529 219.952 176.884 214.364C173.239 208.775 161.943 217.116 160.114 217.886C158.286 218.657 157.984 216.826 158.304 215.7C158.623 214.574 162.317 201.85 164.206 196.093C166.094 190.337 165.738 186.121 162.359 184.363C159.1 182.665 155.184 187.579 152.746 189.096C150.308 190.614 149.016 187.29 149.016 187.29C149.016 187.29 147.966 178.588 143.676 162.974C139.385 147.359 132.493 150.171 132.493 150.171" fill="#EBEBEB"/>
<path d="M165.787 277.183C162.667 265.742 157.465 245.267 152.903 227.696C148.34 210.124 144.207 194.287 141.147 182.785C139.608 177.059 138.365 172.416 137.526 169.194C137.104 167.598 136.772 166.358 136.543 165.497C136.434 165.087 136.349 164.762 136.295 164.533C136.241 164.305 136.217 164.202 136.217 164.202C136.217 164.202 136.259 164.311 136.325 164.527C136.392 164.744 136.488 165.069 136.609 165.479C136.85 166.334 137.212 167.574 137.653 169.158C138.558 172.356 139.838 176.986 141.394 182.725C144.52 194.167 148.696 210.064 153.253 227.612C157.809 245.159 162.95 265.645 166.004 277.123" fill="#E0E0E0"/>
<path d="M131.932 198.249C132.174 198.347 132.404 198.47 132.62 198.616C133.048 198.869 133.664 199.255 134.43 199.736C135.933 200.706 137.979 202.091 140.206 203.669L145.896 207.715L147.622 208.92C147.839 209.054 148.042 209.212 148.226 209.389C147.982 209.299 147.75 209.178 147.538 209.028C147.103 208.775 146.494 208.39 145.727 207.896C144.237 206.914 142.209 205.487 139.982 203.928L134.267 199.923L132.529 198.719C132.314 198.584 132.114 198.427 131.932 198.249Z" fill="#E0E0E0"/>
<path d="M149.107 208.896C149.028 208.842 151.714 204.512 155.099 199.219C158.484 193.926 161.303 189.68 161.381 189.728C161.46 189.777 158.774 194.106 155.383 199.399C151.991 204.693 149.179 208.944 149.107 208.896Z" fill="#E0E0E0"/>
<path d="M154.882 236.156C155.06 235.95 155.262 235.766 155.485 235.608L157.109 234.187C158.484 232.983 160.367 231.321 162.383 229.406C164.398 227.491 166.173 225.703 167.44 224.39L168.943 222.842C169.125 222.642 169.327 222.461 169.546 222.3C169.406 222.528 169.242 222.74 169.057 222.933C168.731 223.324 168.243 223.878 167.633 224.552C166.426 225.907 164.658 227.732 162.63 229.647C160.603 231.562 158.696 233.212 157.284 234.368C156.571 234.94 155.992 235.404 155.582 235.705C155.368 235.884 155.133 236.036 154.882 236.156Z" fill="#E0E0E0"/>
<path d="M137.23 229.942C137.474 229.967 137.714 230.023 137.942 230.111L139.855 230.713C141.461 231.225 143.675 231.953 146.113 232.778C148.551 233.603 150.754 234.368 152.341 234.934L154.218 235.626C154.453 235.694 154.679 235.794 154.888 235.922C154.644 235.892 154.405 235.834 154.176 235.747L152.269 235.145C150.657 234.633 148.443 233.904 146.005 233.085C143.567 232.266 141.364 231.496 139.777 230.923L137.9 230.237C137.667 230.164 137.442 230.065 137.23 229.942Z" fill="#E0E0E0"/>
<path d="M139.27 254.655C139.58 254.705 139.885 254.782 140.182 254.884L142.632 255.631C144.695 256.275 147.538 257.19 150.676 258.214C153.814 259.238 156.644 260.189 158.69 260.888L161.104 261.737C161.406 261.826 161.7 261.945 161.979 262.092C161.669 262.043 161.364 261.966 161.067 261.863L158.617 261.129C156.554 260.484 153.705 259.569 150.567 258.545C147.429 257.522 144.605 256.57 142.559 255.872L140.145 255.023C139.842 254.931 139.548 254.808 139.27 254.655Z" fill="#E0E0E0"/>
<path d="M161.484 261.761C161.696 261.501 161.933 261.261 162.19 261.045L164.187 259.172C165.871 257.582 168.194 255.384 170.681 252.885C173.167 250.386 175.376 248.068 176.957 246.388L178.828 244.388C179.048 244.133 179.288 243.895 179.546 243.678C179.368 243.96 179.166 244.226 178.942 244.473C178.532 244.972 177.916 245.677 177.132 246.544C175.593 248.278 173.42 250.621 170.922 253.126C168.424 255.631 166.094 257.799 164.35 259.34C163.481 260.111 162.775 260.725 162.281 261.147C162.033 261.375 161.767 261.58 161.484 261.761Z" fill="#E0E0E0"/>
<path d="M101.475 56.7252L95.5854 54.8886C95.5854 54.8886 94.0466 59.8204 88.8749 58.309C87.8749 58.0361 86.9848 57.4593 86.3284 56.6585C85.6719 55.8578 85.2817 54.873 85.2118 53.8408C85.1416 52.9736 85.2778 52.1021 85.6092 51.2974C85.9406 50.4926 86.4578 49.7774 87.1188 49.2101C88.6335 47.8792 91.2887 47.0663 95.0363 48.9993L99.1821 35.7514L93.3586 33.9448L90.9448 41.7069C90.9448 41.7069 82.1221 41.2613 79.2979 50.2458C76.6124 58.8389 83.7092 63.2348 87.0162 64.2645C89.5447 65.0534 98.3433 67.1249 101.475 56.7252Z" fill="#C6C6C6"/>
<path d="M94.1419 31.1831L100.052 33.0234L101.774 27.5164L95.8639 25.6761L94.1419 31.1831Z" fill="#C6C6C6"/>
<path d="M117.726 41.761L120.08 41.1589C120.008 40.8911 119.99 40.6116 120.028 40.337C120.067 40.0623 120.16 39.7981 120.302 39.56C120.444 39.3219 120.633 39.1147 120.857 38.9508C121.081 38.7869 121.336 38.6695 121.607 38.6056C121.995 38.4885 122.411 38.4939 122.796 38.621C123.182 38.7482 123.519 38.991 123.761 39.3162C123.966 39.5924 124.103 39.9131 124.161 40.2521C124.219 40.5911 124.195 40.9389 124.093 41.2673C123.87 42.032 123.152 42.857 121.486 43.0015L122.892 48.3067L125.221 47.7046L124.425 44.5853C125.309 44.0526 125.992 43.2447 126.371 42.286C126.749 41.3274 126.801 40.2711 126.519 39.2801C125.614 35.8416 122.295 35.8537 120.985 36.2029C119.971 36.4679 116.586 37.6241 117.726 41.761Z" fill="#C6C6C6"/>
<path d="M125.86 48.5689L123.483 49.2046L124.078 51.4184L126.454 50.7827L125.86 48.5689Z" fill="#C6C6C6"/>
<path d="M312.531 102.708L314.824 103.539C314.918 103.277 315.064 103.038 315.252 102.833C315.44 102.629 315.668 102.465 315.921 102.349C316.174 102.234 316.448 102.171 316.726 102.163C317.004 102.156 317.281 102.204 317.54 102.304C317.925 102.43 318.263 102.67 318.507 102.993C318.751 103.317 318.889 103.707 318.904 104.111C318.92 104.456 318.852 104.801 318.707 105.115C318.562 105.429 318.344 105.704 318.071 105.917C317.468 106.417 316.387 106.694 314.939 105.863L313.062 111.024L315.331 111.843L316.43 108.832C317.459 108.895 318.481 108.619 319.339 108.047C320.197 107.475 320.843 106.638 321.179 105.664C322.386 102.316 319.67 100.45 318.379 99.9859C317.395 99.6306 313.955 98.6551 312.531 102.708Z" fill="#C6C6C6"/>
<path d="M314.992 112.912L312.688 112.08L311.909 114.225L314.213 115.058L314.992 112.912Z" fill="#C6C6C6"/>
<path d="M69.1656 128.92L73.9933 127.053C73.9933 127.053 72.4243 122.989 76.6305 121.285C77.4355 120.945 78.3263 120.862 79.1802 121.049C80.034 121.236 80.8089 121.682 81.3978 122.326C81.8989 122.862 82.2661 123.509 82.4696 124.213C82.673 124.917 82.7069 125.659 82.5686 126.379C82.2668 128.053 80.9392 129.992 77.4451 130.655L81.6694 141.578L86.4971 139.729L84.029 133.334C84.029 133.334 90.0636 129.011 87.2273 121.61C84.4936 114.528 77.4934 115.329 74.7718 116.377C72.6778 117.208 65.7741 120.411 69.1656 128.92Z" fill="#C6C6C6"/>
<path d="M87.417 141.961L82.546 143.834L84.299 148.374L89.17 146.502L87.417 141.961Z" fill="#C6C6C6"/>
<path d="M314.42 147.317L310.98 148.642C310.98 148.642 312.097 151.526 309.116 152.731C308.545 152.974 307.913 153.034 307.307 152.901C306.701 152.768 306.152 152.45 305.736 151.99C305.38 151.611 305.119 151.153 304.975 150.653C304.83 150.154 304.805 149.628 304.904 149.118C305.121 147.913 306.062 146.57 308.524 146.107L305.537 138.369L302.134 139.675L303.884 144.21C302.646 145.155 301.754 146.479 301.344 147.98C300.934 149.48 301.029 151.073 301.615 152.514C303.552 157.536 308.512 156.964 310.443 156.223C311.934 155.609 316.822 153.339 314.42 147.317Z" fill="#C6C6C6"/>
<path d="M301.493 138.054L304.945 136.727L303.704 133.513L300.252 134.84L301.493 138.054Z" fill="#C6C6C6"/>
<path d="M95.9475 264.814C96.5509 262.598 95.0664 260.376 93.431 258.792C91.7956 257.208 89.8525 255.745 89.0016 253.619C87.6257 250.181 89.4783 245.725 87.1308 242.852C85.7489 241.16 83.2747 240.594 82.0497 238.794C81.4859 237.795 81.1115 236.7 80.9453 235.566C79.6459 229.839 76.8257 224.566 72.7804 220.301C72.5102 225.395 73.6169 230.467 75.9848 234.988C76.9383 236.794 78.103 238.559 78.3987 240.57C78.9116 243.846 77.0831 247.194 77.8857 250.428C78.809 254.101 82.9428 256.558 83.1419 260.34C83.3049 263.537 80.5108 266.361 80.7281 269.541C80.8916 270.901 81.3801 272.202 82.1522 273.335C84.6325 277.441 88.2714 280.278 93.7871 280.181L100.546 280.416L95.9475 264.814Z" fill="#6E4BE8"/>
<g opacity="0.3">
<path opacity="0.3" d="M95.9475 264.814C96.5509 262.598 95.0664 260.376 93.431 258.792C91.7956 257.208 89.8525 255.745 89.0016 253.619C87.6257 250.181 89.4783 245.725 87.1308 242.852C85.7489 241.16 83.2747 240.594 82.0497 238.794C81.4859 237.795 81.1115 236.7 80.9453 235.566C79.6459 229.839 76.8257 224.566 72.7804 220.301C72.5102 225.395 73.6169 230.467 75.9848 234.988C76.9383 236.794 78.103 238.559 78.3987 240.57C78.9116 243.846 77.0831 247.194 77.8857 250.428C78.809 254.101 82.9428 256.558 83.1419 260.34C83.3049 263.537 80.5108 266.361 80.7281 269.541C80.8916 270.901 81.3801 272.202 82.1522 273.335C84.6325 277.441 88.2714 280.278 93.7871 280.181L100.546 280.416L95.9475 264.814Z" fill="black"/>
</g>
<path d="M101.922 280.597C102.541 280.692 103.172 280.678 103.786 280.555C104.535 280.447 105.271 280.264 105.983 280.007C106.957 279.664 107.866 279.161 108.674 278.52C109.166 278.128 109.55 277.618 109.791 277.038C109.991 276.386 110.099 275.709 110.111 275.027C110.122 274.296 110.175 273.566 110.268 272.841C110.4 272.073 110.678 271.337 111.088 270.673C111.891 269.276 113.213 267.957 113.641 266.061C114.069 264.164 113.768 262.177 113.454 260.147C113.14 258.118 112.85 255.932 113.611 253.812C114.371 251.693 115.819 249.802 116.562 247.423C117.304 245.045 116.954 242.443 117.111 239.896C117.159 238.602 117.459 237.33 117.992 236.15C118.535 234.946 119.295 233.832 119.887 232.573C121.094 230.032 121.299 227.154 121.625 224.336C121.79 222.915 121.953 221.477 122.114 220.024C122.211 218.565 122.462 217.12 122.862 215.712C123.318 214.291 123.858 212.897 124.479 211.539C124.801 210.836 125.063 210.107 125.264 209.359C125.377 208.591 125.45 207.817 125.481 207.041C125.556 205.483 125.496 203.922 125.3 202.374C125.119 200.821 124.835 199.273 124.696 197.713C124.696 197.623 124.696 197.533 124.696 197.448V197.135L124.365 197.298C122.938 198.028 121.699 199.077 120.744 200.363C119.808 201.619 119.056 203.002 118.511 204.47C117.376 207.366 116.972 210.407 116.405 213.304C115.838 216.2 115.113 219.049 113.629 221.457C112.887 222.662 111.994 223.752 111.215 224.926C110.375 226.065 109.802 227.378 109.537 228.768C109.139 231.622 110.744 234.127 110.382 236.65C110.237 237.89 109.826 239.083 109.175 240.149C108.572 241.227 107.842 242.226 107.154 243.232C106.456 244.213 105.85 245.255 105.343 246.345C104.849 247.397 104.546 248.529 104.45 249.687C104.287 251.964 104.613 254.119 104.45 256.155C104.262 258.092 103.696 259.974 102.785 261.695C101.964 263.357 101.053 264.856 100.292 266.308C99.9121 267.036 99.5561 267.747 99.2664 268.457C98.9923 269.145 98.7901 269.86 98.663 270.589C98.4611 271.863 98.4448 273.159 98.6147 274.437C98.7935 276.219 99.4617 277.917 100.546 279.345C100.712 279.56 100.896 279.761 101.095 279.947C101.228 280.086 101.376 280.212 101.535 280.32C101.789 280.507 101.922 280.591 101.922 280.591C101.442 280.208 101.005 279.774 100.618 279.297C99.579 277.869 98.9528 276.184 98.8078 274.425C98.654 273.163 98.6825 271.885 98.8923 270.631C99.0219 269.918 99.2241 269.22 99.4957 268.548C99.7854 267.855 100.141 267.151 100.528 266.428C101.294 264.989 102.211 263.495 103.05 261.821C103.987 260.072 104.574 258.158 104.776 256.185C104.951 254.107 104.637 251.94 104.776 249.717C104.854 248.59 105.13 247.486 105.591 246.454C106.099 245.385 106.705 244.365 107.401 243.407C108.083 242.407 108.813 241.401 109.441 240.305C110.128 239.197 110.568 237.955 110.732 236.662C111.058 233.971 109.525 231.447 109.899 228.798C110.162 227.469 110.716 226.214 111.523 225.125C112.295 223.974 113.194 222.872 113.937 221.644C115.476 219.169 116.218 216.26 116.779 213.352C117.34 210.443 117.763 207.432 118.867 204.596C119.402 203.166 120.136 201.819 121.046 200.592C121.964 199.36 123.156 198.356 124.528 197.659L124.22 197.485C124.22 197.569 124.22 197.665 124.22 197.755C124.389 199.333 124.672 200.881 124.853 202.416C125.044 203.942 125.102 205.481 125.028 207.017C125.001 207.769 124.932 208.519 124.823 209.263C124.632 209.985 124.377 210.688 124.063 211.365C123.44 212.737 122.898 214.144 122.44 215.58C122.032 217.011 121.776 218.48 121.673 219.964C121.516 221.415 121.353 222.854 121.196 224.275C120.877 227.112 120.659 229.942 119.507 232.393C118.903 233.597 118.179 234.741 117.618 235.976C117.068 237.2 116.76 238.519 116.713 239.86C116.562 242.461 116.9 245.002 116.2 247.309C115.5 249.615 114.021 251.524 113.279 253.692C112.537 255.86 112.808 258.166 113.134 260.183C113.46 262.201 113.786 264.188 113.351 265.982C112.917 267.777 111.674 269.102 110.865 270.541C110.441 271.23 110.156 271.995 110.026 272.793C109.935 273.526 109.887 274.264 109.881 275.003C109.881 275.665 109.785 276.325 109.598 276.96C109.371 277.513 109.01 278.001 108.548 278.381C107.752 279.02 106.857 279.524 105.899 279.875C105.197 280.143 104.472 280.345 103.732 280.477C103.279 280.556 102.822 280.6 102.362 280.609C102.085 280.591 101.922 280.597 101.922 280.597Z" fill="#263238"/>
<path d="M123.272 201.158C123.247 201.224 123.227 201.293 123.212 201.362C123.17 201.525 123.121 201.724 123.061 201.965C122.928 202.495 122.771 203.295 122.512 204.301C122.252 205.307 121.637 206.427 121.112 207.824C120.507 209.392 119.981 210.99 119.537 212.611C119.018 214.418 118.565 216.405 118.089 218.543C117.612 220.68 117.099 222.969 115.922 225.13C115.313 226.202 114.709 227.334 114.22 228.545C113.734 229.789 113.407 231.09 113.249 232.417C112.908 235.159 112.421 237.88 111.788 240.57C110.437 246.098 109.145 251.361 107.968 256.155L104.77 268.861C103.877 272.474 103.153 275.376 102.646 277.436C102.41 278.423 102.223 279.206 102.091 279.772C102.036 280.019 101.988 280.224 101.958 280.374C101.938 280.443 101.926 280.514 101.922 280.585C101.922 280.585 101.958 280.519 102 280.386C102.042 280.254 102.103 280.025 102.175 279.784C102.326 279.218 102.543 278.447 102.809 277.466C103.352 275.412 104.118 272.504 105.066 268.927C106.013 265.35 107.118 261.008 108.355 256.239C109.592 251.47 110.847 246.195 112.211 240.655C112.846 237.954 113.332 235.219 113.665 232.465C113.821 231.172 114.137 229.904 114.607 228.689C115.083 227.485 115.699 226.401 116.248 225.299C117.455 223.095 117.932 220.735 118.408 218.609C118.885 216.483 119.308 214.472 119.802 212.677C120.297 210.883 120.816 209.287 121.335 207.902C121.854 206.517 122.427 205.367 122.675 204.337C122.922 203.307 123.043 202.531 123.146 201.977C123.186 201.728 123.222 201.527 123.254 201.374C123.272 201.236 123.284 201.164 123.272 201.158Z" fill="#263238"/>
<path d="M103.117 280.615C107.528 278.002 108.795 270.053 106.955 265.272C105.114 260.49 101.892 256.119 101.397 251.018C101.017 247.098 102.302 243.075 101.397 239.245C100.16 234.073 95.1028 230.068 95.1631 224.751C95.1631 221.77 96.8951 218.964 96.7623 215.983C96.6054 212.352 93.7691 209.432 92.0311 206.21C89.3638 201.284 89.1888 195.455 88.2776 189.951C87.3663 184.447 85.2602 178.51 80.348 175.794C79.6239 180.485 78.3868 183.695 78.779 190.054C78.9178 192.336 81.5731 196.678 81.9351 201.706C82.1524 204.717 82.2972 207.685 82.4843 210.678C82.6714 213.671 82.8524 216.555 83.8964 219.277C84.699 221.367 85.9844 223.258 86.5818 225.413C87.6982 229.472 86.2258 233.844 87.131 237.969C87.8974 241.449 90.3112 244.442 90.8061 247.971C91.5001 252.927 88.2836 258.076 89.925 262.809C90.7457 265.151 92.6768 267.024 93.226 269.463C93.6544 271.342 93.1898 273.329 93.576 275.22C94.1795 278.261 100.015 280.639 103.117 280.435" fill="#6E4BE8"/>
<path d="M81.567 180.437C81.5589 180.525 81.5589 180.613 81.567 180.701C81.567 180.9 81.6273 181.153 81.6696 181.472C81.7661 182.153 81.8808 183.146 82.1101 184.429C82.3394 185.712 83.0274 187.181 83.5584 188.939C84.0895 190.698 84.6809 192.709 85.1757 194.961C85.6705 197.213 86.105 199.724 86.5456 202.416C86.9861 205.108 87.4689 208.04 88.8086 210.847C89.412 212.256 90.1241 213.665 90.619 215.164C91.1283 216.707 91.4406 218.307 91.5483 219.927C91.7981 223.36 92.2312 226.778 92.8457 230.164L96.6536 249.759C97.8907 255.781 99.0011 261.171 99.9425 265.723C100.884 270.276 101.656 273.907 102.193 276.478C102.465 277.718 102.676 278.7 102.827 279.393C102.899 279.712 102.96 279.959 103.002 280.151C103.018 280.238 103.042 280.323 103.074 280.404C103.085 280.318 103.085 280.231 103.074 280.145C103.044 279.947 102.996 279.694 102.942 279.38C102.809 278.676 102.622 277.694 102.387 276.442C101.886 273.871 101.18 270.191 100.274 265.663C99.3692 261.134 98.289 255.709 97.0881 249.687C95.8872 243.665 94.6742 237.041 93.3164 230.098C92.7013 226.711 92.2662 223.294 92.013 219.861C91.8987 218.21 91.5763 216.579 91.0535 215.008C90.5164 213.472 89.8103 212.057 89.1948 210.66C87.8611 207.902 87.3844 205.017 86.9197 202.338C86.455 199.658 86.0205 197.141 85.4955 194.877C84.9705 192.613 84.3972 190.589 83.8058 188.855C83.2144 187.121 82.5567 185.651 82.2972 184.387C82.0377 183.122 81.8989 182.123 81.7721 181.454L81.6273 180.689C81.6172 180.603 81.597 180.518 81.567 180.437Z" fill="#263238"/>
<path d="M294.391 54.6361H291.977C291.979 54.909 291.926 55.1795 291.82 55.4315C291.715 55.6834 291.56 55.9117 291.365 56.1027C291.17 56.2937 290.938 56.4436 290.683 56.5433C290.429 56.6431 290.157 56.6908 289.883 56.6835C289.48 56.6975 289.082 56.5863 288.745 56.3652C288.408 56.1441 288.148 55.824 288 55.4491C287.873 55.1342 287.823 54.7937 287.853 54.4555C287.883 54.1173 287.994 53.7912 288.175 53.504C288.58 52.8356 289.473 52.2274 291.09 52.5104V47.0908H288.718V50.2583C287.744 50.5442 286.89 51.1415 286.288 51.9585C285.686 52.7754 285.37 53.7669 285.387 54.7806C285.387 58.2853 288.537 59.1043 289.883 59.1043C290.921 59.1163 294.433 58.8634 294.391 54.6361Z" fill="#1EA8E7"/>
<path d="M291.102 43.7427H288.694V45.9888H291.102V43.7427Z" fill="#1EA8E7"/>
<path d="M307.546 51.4263C307.553 51.326 307.553 51.2254 307.546 51.1252C307.546 50.9024 307.546 50.6073 307.516 50.234C307.516 50.0352 307.516 49.8185 307.516 49.5776C307.516 49.3367 307.444 49.0718 307.402 48.7887C307.359 48.5057 307.317 48.1866 307.269 47.8734C307.221 47.5603 307.106 47.211 307.015 46.8497C306.557 45.0813 305.808 43.4006 304.801 41.8757C303.495 39.8419 301.789 38.0943 299.786 36.7391C297.334 35.1145 294.52 34.1139 291.591 33.8246C290.788 33.7537 289.982 33.7376 289.177 33.7764C288.773 33.7764 288.356 33.7764 287.97 33.8547L286.733 34.0414C285.038 34.3565 283.4 34.9185 281.869 35.7094C280.253 36.5546 278.769 37.6297 277.464 38.901C276.126 40.2555 275.008 41.8097 274.151 43.5076C273.248 45.2598 272.663 47.158 272.425 49.1139C272.349 49.6103 272.307 50.1113 272.298 50.6133C272.268 51.1167 272.268 51.6214 272.298 52.1248C272.433 55.3451 273.445 58.4678 275.225 61.1575V60.9768C274.388 63.0684 273.565 65.1158 272.757 67.1191L272.606 67.4804L272.986 67.378L279.57 65.5715L279.407 65.5413C281.62 67.2083 284.196 68.3306 286.926 68.8172C288.195 69.0519 289.488 69.1327 290.776 69.0581C291.397 69.0488 292.017 68.9904 292.629 68.8834L293.528 68.7449C293.824 68.6907 294.131 68.6004 294.403 68.5282C298.448 67.4989 301.996 65.0705 304.414 61.6754C305.317 60.4219 306.042 59.05 306.569 57.5986C306.683 57.2795 306.792 56.9964 306.901 56.6773C307.009 56.3581 307.052 56.0751 307.118 55.8041C307.184 55.5331 307.257 55.2622 307.317 55.0092C307.377 54.7563 307.396 54.5034 307.432 54.2746C307.486 53.8109 307.571 53.4014 307.589 53.0702C307.607 52.739 307.589 52.4139 307.619 52.167C307.649 51.9201 307.619 51.7575 307.619 51.613C307.625 51.5509 307.625 51.4883 307.619 51.4263C307.6 51.4868 307.59 51.5497 307.589 51.613C307.589 51.7575 307.589 51.9381 307.546 52.1609C307.504 52.3837 307.51 52.7089 307.486 53.0582C307.462 53.4074 307.371 53.8169 307.299 54.2625C306.722 57.5943 305.189 60.6873 302.885 63.1662C300.58 65.645 297.605 67.4031 294.318 68.2271C294.035 68.2933 293.751 68.3836 293.462 68.4378L292.574 68.5703C291.976 68.667 291.371 68.7214 290.764 68.7329C289.499 68.8004 288.231 68.7154 286.986 68.48C284.313 67.9949 281.793 66.8869 279.63 65.2463L279.558 65.1921H279.467L272.883 66.9986L273.119 67.2576C273.921 65.2583 274.748 63.2049 275.593 61.1153L275.635 61.019L275.575 60.9347C274.391 59.1382 273.548 57.1399 273.089 55.0393C272.883 54.0635 272.758 53.0727 272.714 52.0766C272.694 51.5847 272.704 51.092 272.745 50.6013C272.736 50.1205 272.76 49.6396 272.817 49.1621C273.048 47.2483 273.618 45.3908 274.501 43.6762C275.338 42.016 276.427 40.4947 277.729 39.1659C279.006 37.9183 280.458 36.8616 282.038 36.0286C283.546 35.2488 285.16 34.6929 286.829 34.3786L288.036 34.1919C288.435 34.1317 288.845 34.1377 289.243 34.1076C290.03 34.0683 290.818 34.0804 291.603 34.1438C294.231 34.3769 296.771 35.2027 299.032 36.5588C301.293 37.9149 303.216 39.7659 304.656 41.9721C305.651 43.4729 306.396 45.124 306.865 46.8618L307.136 47.8734C307.19 48.1986 307.239 48.4756 307.287 48.7827C307.335 49.0898 307.377 49.3247 307.414 49.5595C307.45 49.7944 307.444 50.0172 307.462 50.2159C307.492 50.5892 307.51 50.8843 307.528 51.1011C307.525 51.2098 307.531 51.3186 307.546 51.4263Z" fill="#263238"/>
<path d="M127.587 122.447H162.437C162.437 122.447 162.437 93.2473 192.846 92.7235C208.645 92.4525 216.834 102.774 220.159 110.686C224.021 119.87 222.85 130.336 217.679 138.85C211.765 148.576 199.031 158.349 175.545 154.218L175.321 231.7H209.785V185.772C209.785 185.772 258.117 173.301 258.117 120.135C258.117 69.2806 216.906 58.2909 194.753 57.5863C182.424 57.1949 177.958 56.665 162.715 58.8268C143.295 61.5968 127.177 84.0882 127.587 122.447Z" fill="#6E4BE8"/>
<path d="M210.202 247.856H175.225V280.452H210.202V247.856Z" fill="#6E4BE8"/>
<path opacity="0.1" d="M210.202 247.856H175.225V280.452H210.202V247.856Z" fill="black"/>
<path opacity="0.1" d="M127.587 122.447H162.437C162.437 122.447 162.437 93.2473 192.846 92.7235C208.645 92.4525 216.834 102.774 220.159 110.686C224.021 119.87 222.85 130.336 217.679 138.85C211.765 148.576 199.031 158.349 175.545 154.218L175.321 231.7H209.785V185.772C209.785 185.772 258.117 173.301 258.117 120.135C258.117 69.2806 216.906 58.2909 194.753 57.5863C182.424 57.1949 177.958 56.665 162.715 58.8268C143.295 61.5968 127.177 84.0882 127.587 122.447Z" fill="black"/>
<path d="M113.152 122.447H148.002C148.002 122.447 148.002 93.2473 178.411 92.7234C194.204 92.4524 202.393 102.774 205.724 110.686C209.586 119.87 208.415 130.335 203.237 138.85C197.33 148.575 184.373 157.415 160.886 153.303V231.7H195.35V185.772C195.35 185.772 243.682 173.301 243.682 120.135C243.682 69.2806 197.981 57.4658 178.417 57.4658C163.457 57.4839 112.494 61.097 113.152 122.447Z" fill="#6E4BE8"/>
<path opacity="0.3" d="M113.152 122.447H148.002C148.002 122.447 148.002 93.2473 178.411 92.7234C194.204 92.4524 202.393 102.774 205.724 110.686C209.586 119.87 208.415 130.335 203.237 138.85C197.33 148.575 184.373 157.415 160.886 153.303V231.7H195.35V185.772C195.35 185.772 243.682 173.301 243.682 120.135C243.682 69.2806 197.981 57.4658 178.417 57.4658C163.457 57.4839 112.494 61.097 113.152 122.447Z" fill="black"/>
<path d="M195.767 247.856H160.79V280.452H195.767V247.856Z" fill="#6E4BE8"/>
<path opacity="0.3" d="M195.767 247.856H160.79V280.452H195.767V247.856Z" fill="black"/>
<path d="M182.346 92.8861C182.173 92.901 181.999 92.901 181.827 92.8861C181.483 92.8861 180.988 92.7717 180.342 92.7657C178.517 92.6768 176.687 92.7513 174.875 92.9885C172.188 93.3337 169.545 93.9553 166.987 94.8432C165.48 95.3668 164.012 95.9967 162.594 96.728C161.063 97.4965 159.62 98.4294 158.291 99.5101C156.976 100.602 155.795 101.845 154.773 103.213C153.809 104.484 152.928 105.816 152.136 107.2C150.815 109.56 149.768 112.064 149.016 114.661C148.508 116.411 148.156 118.202 147.966 120.014C147.894 120.659 147.876 121.158 147.857 121.502C147.858 121.675 147.842 121.849 147.809 122.02C147.796 121.845 147.796 121.67 147.809 121.496C147.799 120.999 147.816 120.503 147.857 120.008C147.996 118.174 148.318 116.359 148.817 114.589C149.543 111.964 150.576 109.433 151.895 107.049C152.688 105.648 153.573 104.3 154.544 103.015C155.575 101.622 156.77 100.358 158.104 99.2511C159.448 98.1573 160.909 97.2161 162.461 96.445C163.894 95.7093 165.378 95.0793 166.903 94.5602C169.483 93.6739 172.152 93.0682 174.863 92.7536C176.686 92.53 178.528 92.4877 180.36 92.6272C180.858 92.6606 181.353 92.7189 181.845 92.8018C182.014 92.8162 182.181 92.8444 182.346 92.8861Z" fill="#263238"/>
<path d="M234.859 86.6778C234.816 86.6361 234.777 86.5896 234.744 86.5393L234.443 86.1238C234.165 85.7324 233.779 85.1904 233.296 84.4979C233.043 84.1487 232.783 83.7452 232.463 83.3297L231.377 82.0109L230.128 80.4754C229.675 79.9515 229.144 79.4396 228.619 78.8796C228.094 78.3196 227.557 77.7415 226.954 77.1634L225.004 75.405C224.666 75.104 224.335 74.8029 223.972 74.4897L222.85 73.6045C222.084 73.0024 221.323 72.4002 220.497 71.798C216.894 69.2247 213.072 66.9739 209.073 65.0717L205.862 63.6144L202.706 62.41C201.68 61.9885 200.63 61.6814 199.611 61.3502C198.591 61.019 197.607 60.6697 196.593 60.4349L193.709 59.6761C192.773 59.4293 191.844 59.2847 190.957 59.074C190.07 58.8632 189.213 58.6886 188.374 58.5802L185.96 58.2369C184.433 57.978 183.033 57.9238 181.814 57.7973C181.211 57.7552 180.607 57.689 180.107 57.6649L178.67 57.6227L176.679 57.5625H176.16C176.102 57.5687 176.043 57.5687 175.985 57.5625H176.16H178.67H180.113C180.644 57.5625 181.211 57.6348 181.826 57.6709C183.033 57.7793 184.458 57.8154 185.984 58.0623L188.398 58.3935C189.237 58.4899 190.094 58.7066 190.993 58.8692C191.892 59.0318 192.803 59.1944 193.757 59.4714L196.654 60.2181C197.655 60.4469 198.645 60.8203 199.671 61.1274C200.697 61.4345 201.741 61.7296 202.779 62.1812L205.947 63.3856L209.145 64.8248C213.164 66.736 217.002 69.0054 220.611 71.6053C221.444 72.2075 222.204 72.8518 222.971 73.4118L224.093 74.3091C224.455 74.6102 224.787 74.9113 225.125 75.2364L227.068 77.0129C227.672 77.615 228.215 78.2172 228.752 78.7652C229.289 79.3132 229.802 79.8551 230.255 80.3851L231.461 81.9266L232.536 83.2635C232.843 83.685 233.103 84.0945 233.344 84.4678L234.443 86.1298L234.726 86.5634C234.775 86.5966 234.819 86.6349 234.859 86.6778Z" fill="#263238"/>
<path d="M231.226 161.342C231.156 161.473 231.069 161.595 230.967 161.703L230.158 162.703C229.814 163.136 229.379 163.66 228.842 164.244C228.305 164.828 227.732 165.521 227.032 166.225C226.332 166.93 225.584 167.731 224.733 168.532C223.882 169.333 222.959 170.182 221.975 171.061C219.811 172.927 217.551 174.68 215.204 176.312C212.843 177.922 210.398 179.406 207.878 180.756C206.707 181.358 205.603 181.96 204.535 182.43C203.467 182.9 202.477 183.369 201.554 183.755C200.63 184.14 199.791 184.459 199.055 184.742C198.319 185.025 197.673 185.248 197.142 185.417L195.935 185.814C195.793 185.863 195.648 185.903 195.501 185.935C195.632 185.862 195.769 185.801 195.911 185.754L197.118 185.302C197.643 185.116 198.283 184.881 199.007 184.58C199.731 184.279 200.582 183.978 201.487 183.55C202.392 183.123 203.394 182.713 204.438 182.195C205.482 181.677 206.599 181.111 207.763 180.503C210.062 179.245 212.543 177.763 215.047 176.053C217.552 174.343 219.808 172.542 221.806 170.844C222.79 169.971 223.737 169.158 224.57 168.345C225.403 167.532 226.193 166.779 226.887 166.075C227.581 165.37 228.191 164.702 228.734 164.13C229.277 163.558 229.723 163.046 230.085 162.624L230.936 161.667C231.025 161.552 231.122 161.443 231.226 161.342Z" fill="#263238"/>
<path d="M194.741 228.972C194.65 228.972 194.584 219.301 194.584 207.372C194.584 195.443 194.65 185.766 194.741 185.766C194.831 185.766 194.898 195.437 194.898 207.372C194.898 219.307 194.825 228.972 194.741 228.972Z" fill="#263238"/>
<path d="M196.068 278.243C195.984 278.243 195.911 271.456 195.911 263.08C195.911 254.703 195.984 247.923 196.068 247.923C196.153 247.923 196.225 254.709 196.225 263.08C196.225 271.45 196.177 278.243 196.068 278.243Z" fill="#263238"/>
<path d="M230.375 117.811C229.771 119.015 232.022 119.996 233.32 120.388C234.643 120.717 236.013 120.813 237.369 120.671C239.179 120.574 241.032 120.406 242.595 119.515C243.965 118.668 245.06 117.442 245.745 115.986C246.425 114.538 246.96 113.028 247.344 111.476C247.344 111.476 233.084 112.427 230.375 117.811Z" fill="#6E4BE8"/>
<g opacity="0.4">
<path opacity="0.4" d="M230.375 117.811C229.771 119.015 232.022 119.996 233.32 120.388C234.643 120.717 236.013 120.813 237.369 120.671C239.179 120.574 241.032 120.406 242.595 119.515C243.965 118.668 245.06 117.442 245.745 115.986C246.425 114.538 246.96 113.028 247.344 111.476C247.344 111.476 233.084 112.427 230.375 117.811Z" fill="black"/>
</g>
<path d="M270.65 113.969C272.999 115.637 275.817 116.521 278.701 116.492C280.07 116.492 281.525 116.209 282.533 115.287C282.997 114.866 283.347 114.324 283.824 113.914C284.15 113.637 284.53 113.427 284.838 113.125C285.001 112.988 285.126 112.811 285.203 112.612C285.28 112.414 285.306 112.199 285.278 111.987C285.16 111.462 284.867 110.993 284.446 110.657C282.81 109.729 280.855 109.759 278.972 109.801C277.088 109.885 275.226 110.25 273.45 110.885C271.99 111.373 270.463 112.09 269.721 113.415" fill="#6E4BE8"/>
<g opacity="0.4">
<path opacity="0.4" d="M285.278 111.987C285.067 111.479 284.691 111.055 284.21 110.783C282.575 109.856 280.855 109.765 278.972 109.808C277.088 109.891 275.226 110.256 273.45 110.891C271.99 111.379 270.463 112.096 269.721 113.421L270.65 113.975C272.999 115.643 275.817 116.527 278.701 116.498C280.07 116.498 281.525 116.215 282.533 115.293C282.997 114.872 283.347 114.33 283.824 113.92C284.15 113.643 284.53 113.433 284.838 113.132C285.002 112.993 285.128 112.816 285.205 112.616C285.282 112.416 285.307 112.2 285.278 111.987Z" fill="black"/>
</g>
<path d="M242.818 135.586L272.901 135.978C272.962 135.979 273.023 135.965 273.077 135.938C273.132 135.911 273.18 135.872 273.216 135.823C273.253 135.774 273.277 135.718 273.287 135.658C273.298 135.598 273.293 135.536 273.275 135.478L269.745 124.494C269.745 124.494 270.264 119.015 271.006 112.391C272.093 102.37 273.547 89.7667 273.565 89.8028C271.507 84.046 259.365 83.0645 259.365 83.0645L245.528 83.8894L245.045 83.0765L241.062 84.9252C240.195 85.3287 239.36 85.7978 238.564 86.3283C235.933 88.0866 229.596 92.1092 228.438 96.6014C225.746 106.971 230.272 118.581 230.272 118.581L233.181 116.317C233.913 115.753 234.684 115.24 235.486 114.781L241.316 130.366C240.969 130.585 240.675 130.879 240.456 131.226C240.237 131.573 240.098 131.964 240.049 132.371C240 133.629 240.652 135.153 242.818 135.586Z" fill="#6E4BE8"/>
<g opacity="0.3">
<path opacity="0.3" d="M255.715 117.208C256.668 112.09 256.167 106.827 255.66 101.648C253.989 105.863 254.049 110.681 252.281 114.86C252.062 115.3 251.904 115.768 251.81 116.251C251.764 116.493 251.777 116.743 251.847 116.98C251.918 117.217 252.044 117.433 252.214 117.612C252.691 118.045 253.421 117.81 254.055 117.732C254.628 117.628 255.186 117.452 255.715 117.208Z" fill="black"/>
</g>
<g opacity="0.4">
<path opacity="0.4" d="M244.635 129.053C247.049 129.896 249.619 128.337 252.172 128.06C253.862 127.879 255.551 128.264 257.229 128.535C260.621 129.084 264.073 129.167 267.488 128.782C268.012 128.756 268.525 128.625 268.997 128.397C269.243 128.232 269.444 128.01 269.584 127.75C269.724 127.49 269.798 127.199 269.799 126.903C264.115 126.301 258.436 125.97 252.751 125.392C251.337 125.152 249.888 125.197 248.491 125.524C246.777 126.054 245.474 127.403 244.267 128.728" fill="black"/>
</g>
<path d="M284.415 109.982C281.953 104.466 273.294 89.1948 273.294 89.1948L266.589 97.5832L268.152 114.053C268.152 114.053 271.694 110.108 281.597 110.03C282.317 110.059 283.021 110.248 283.658 110.583C284.295 110.919 284.849 111.392 285.278 111.969L284.415 109.982Z" fill="#6E4BE8"/>
<path d="M244.152 107.086C243.674 105.915 243.297 104.706 243.024 103.472C242.644 102.269 242.368 101.037 242.197 99.7871C242.672 100.959 243.049 102.167 243.325 103.4C243.701 104.604 243.978 105.837 244.152 107.086Z" fill="#263238"/>
<path d="M266.082 96.4873C266.301 96.6403 266.503 96.8159 266.686 97.0112C267.218 97.524 267.716 98.0712 268.176 98.6491C269.743 100.541 270.847 102.772 271.399 105.165C271.685 106.49 271.75 107.853 271.592 109.199C271.435 110.404 271.199 111.512 271.049 112.433C270.898 113.354 270.795 114.089 270.747 114.607C270.738 114.877 270.71 115.147 270.662 115.414C270.615 115.146 270.601 114.873 270.62 114.601C270.646 113.863 270.715 113.127 270.825 112.397C270.952 111.469 271.163 110.38 271.302 109.163C271.441 107.85 271.37 106.522 271.091 105.231C270.553 102.877 269.504 100.669 268.019 98.7635C266.903 97.3002 266.034 96.5295 266.082 96.4873Z" fill="#263238"/>
<path d="M259.939 134.274C259.728 134.364 259.507 134.428 259.281 134.467C259.023 134.532 258.761 134.582 258.496 134.617C258.189 134.659 257.839 134.726 257.446 134.744C256.527 134.828 255.602 134.828 254.683 134.744C252.423 134.532 250.232 133.853 248.25 132.75C247.442 132.304 246.677 131.786 245.962 131.203C245.685 130.984 245.419 130.751 245.166 130.504C244.967 130.315 244.78 130.114 244.605 129.902C244.442 129.745 244.298 129.569 244.176 129.378C244.218 129.336 244.87 130.059 246.101 130.998C246.822 131.549 247.587 132.04 248.388 132.467C249.371 132.985 250.397 133.416 251.454 133.756C252.519 134.073 253.609 134.299 254.713 134.43C255.614 134.529 256.522 134.555 257.428 134.509C258.979 134.443 259.927 134.214 259.939 134.274Z" fill="#263238"/>
<path d="M269.226 130.841C269.369 131.113 269.45 131.414 269.461 131.72C269.558 132.455 269.502 133.201 269.298 133.912C269.088 134.639 268.668 135.288 268.092 135.779C267.651 136.147 267.313 136.261 267.295 136.231C267.277 136.201 267.566 136.002 267.941 135.629C268.428 135.12 268.782 134.5 268.973 133.822C269.455 132.262 269.111 130.847 269.226 130.841Z" fill="#263238"/>
<path d="M267.591 132.961C267.722 133.58 267.669 134.224 267.44 134.814C267.211 135.405 266.815 135.916 266.299 136.285C266.233 136.219 266.8 135.623 267.144 134.701C267.488 133.78 267.5 132.961 267.591 132.961Z" fill="#263238"/>
<path d="M262.208 113.144C261.89 113.684 261.531 114.199 261.134 114.685C260.824 115.23 260.47 115.75 260.078 116.239C260.411 114.994 261.163 113.901 262.208 113.144Z" fill="#263238"/>
<path d="M241.557 98.5405C241.527 98.5766 241.05 98.1912 240.224 97.6553C238.075 96.2525 235.641 95.3453 233.097 94.9997C232.564 94.9607 232.034 94.8923 231.51 94.7949C232.044 94.7174 232.587 94.7174 233.121 94.7949C235.735 95.0176 238.239 95.9483 240.363 97.4867C240.811 97.7767 241.214 98.1319 241.557 98.5405Z" fill="#263238"/>
<path d="M273.3 89.0083C272.208 89.876 271.187 90.8284 270.246 91.8566C269.39 92.9551 268.625 94.1212 267.959 95.3432C268.028 94.9326 268.169 94.5373 268.375 94.175C268.81 93.2692 269.359 92.4232 270.011 91.6579C270.656 90.8894 271.396 90.2055 272.213 89.6225C272.539 89.3594 272.906 89.1518 273.3 89.0083Z" fill="#263238"/>
<path d="M260.874 84.0464C260.93 84.1352 260.974 84.2302 261.007 84.3294C261.126 84.6018 261.221 84.8838 261.291 85.1725C261.545 86.2436 261.545 87.3592 261.291 88.4302C260.917 90.0345 260.057 91.4852 258.829 92.5853C257.28 93.8953 255.306 94.5956 253.277 94.5544C251.255 94.5505 249.289 93.8958 247.67 92.6877C246.372 91.6932 245.317 90.4163 244.587 88.9541C244.096 87.9775 243.75 86.9349 243.561 85.8589C243.508 85.5661 243.472 85.2706 243.452 84.9737C243.435 84.8721 243.435 84.7683 243.452 84.6666C243.482 84.6666 243.519 85.0882 243.688 85.8349C243.922 86.8824 244.293 87.8947 244.792 88.8458C245.526 90.2645 246.572 91.4996 247.851 92.4588C249.423 93.6226 251.326 94.2555 253.283 94.2654C255.239 94.3039 257.144 93.6368 258.647 92.3866C259.835 91.3321 260.676 89.9449 261.061 88.4062C261.33 87.3649 261.367 86.2777 261.17 85.2206C261.025 84.4498 260.838 84.0885 260.874 84.0464Z" fill="#263238"/>
<g opacity="0.3">
<path opacity="0.3" d="M262.986 114.198C262.986 113.896 262.938 113.541 262.673 113.391C262.588 113.348 262.495 113.326 262.401 113.326C262.307 113.326 262.214 113.348 262.129 113.391C261.962 113.484 261.813 113.606 261.689 113.752C260.981 114.49 260.432 115.365 260.078 116.323L263.035 116.07C263.017 115.474 263.004 114.836 262.986 114.198Z" fill="black"/>
</g>
<g opacity="0.3">
<path opacity="0.3" d="M272.817 108.007C272.519 106.32 271.78 104.741 270.674 103.43C271.948 107.597 271.519 109.952 270.801 112.8L270.958 112.403C271.767 110.735 273.034 109.693 272.817 108.007Z" fill="black"/>
</g>
<path d="M266.897 247.989L265.092 274.997L253.325 274.858L251.472 246.779L266.897 247.989Z" fill="#FFBE9D"/>
<path d="M265.424 271.444V272.221C265.424 272.221 278.701 277.55 278.827 280.049L252.48 279.899L252.89 271.149C256.801 272.998 260.904 273.22 265.424 271.444Z" fill="#6E4BE8"/>
<path d="M255.546 273.973C255.296 274.05 255.083 274.214 254.945 274.436C254.808 274.657 254.755 274.921 254.797 275.178C254.864 275.433 255.027 275.653 255.251 275.793C255.475 275.933 255.745 275.982 256.004 275.93C256.273 275.85 256.502 275.673 256.647 275.434C256.792 275.195 256.842 274.91 256.789 274.636C256.693 274.376 256.5 274.163 256.25 274.043C256 273.922 255.712 273.904 255.449 273.991" fill="white"/>
<path d="M252.486 279.911L252.582 277.803L277.801 278.725C277.801 278.725 278.972 279.236 278.833 280.061L252.486 279.911Z" fill="#263238"/>
<path d="M265.521 272.299C265.521 272.426 264.875 272.48 264.235 272.901C263.596 273.323 263.264 273.835 263.161 273.774C263.059 273.714 263.24 272.986 264.018 272.504C264.797 272.022 265.575 272.179 265.521 272.299Z" fill="#263238"/>
<path d="M268.279 273.455C268.279 273.576 267.748 273.793 267.307 274.335C266.866 274.877 266.74 275.449 266.613 275.443C266.486 275.437 266.402 274.708 266.963 274.046C267.524 273.383 268.279 273.329 268.279 273.455Z" fill="#263238"/>
<path d="M269.83 276.786C269.709 276.816 269.534 276.183 269.872 275.473C270.21 274.762 270.807 274.491 270.862 274.6C270.916 274.708 270.542 275.081 270.258 275.66C269.974 276.238 269.956 276.749 269.83 276.786Z" fill="#263238"/>
<path d="M264.748 50.4687C265.43 48.7826 264.604 46.7352 263.137 45.6513C261.598 44.6369 259.72 44.2691 257.911 44.6276C256.121 44.9914 254.386 45.5886 252.751 46.404C251.992 45.6428 251.035 45.1069 249.988 44.856C248.941 44.6052 247.845 44.6491 246.822 44.9831C245.798 45.317 244.888 45.9278 244.192 46.7475C243.496 47.5672 243.041 48.5635 242.879 49.6257C242.229 49.4619 241.548 49.4775 240.907 49.6706C240.265 49.8637 239.689 50.2271 239.239 50.722C238.789 51.2169 238.482 51.8246 238.352 52.4801C238.221 53.1355 238.271 53.8141 238.498 54.4431L246.65 57.2974L255.558 72.9541C256.874 74.0748 258.554 74.6793 260.284 74.6548C262.014 74.6303 263.677 73.9786 264.961 72.8211C266.245 71.6637 267.063 70.0796 267.263 68.3644C267.462 66.6493 267.03 64.9202 266.046 63.4999C266.546 63.0561 266.97 62.5333 267.301 61.9523C268.013 61.534 268.634 60.9782 269.129 60.3175C269.623 59.6568 269.98 58.9044 270.18 58.1043C270.958 54.684 268.255 50.8782 264.748 50.4687Z" fill="#263238"/>
<path d="M259.347 83.0706C258.847 80.5294 258.491 78.7831 258.497 78.8011C258.503 78.8192 263.324 76.9344 262.974 70.2261C262.811 66.8961 261.532 61.639 260.355 57.3696C259.287 53.5337 255.703 49.2944 251.907 50.5228L240.441 56.1231C239.282 56.4904 239.083 57.5743 239.355 58.7546V59.3568L243.826 77.8136L245.715 86.0694C246.128 87.7537 247.155 89.2242 248.595 90.1939C250.035 91.1637 251.786 91.5632 253.506 91.3144C254.442 91.178 255.341 90.8532 256.148 90.3595C256.954 89.8658 257.652 89.2137 258.199 88.4427C258.745 87.6717 259.128 86.7979 259.326 85.8744C259.523 84.9509 259.531 83.997 259.347 83.0706Z" fill="#FFBE9D"/>
<path d="M260.277 61.8079C260.325 62.0208 260.289 62.244 260.177 62.4313C260.064 62.6185 259.884 62.7554 259.673 62.8135C259.569 62.8438 259.46 62.8531 259.352 62.841C259.244 62.8289 259.14 62.7955 259.045 62.7429C258.95 62.6902 258.867 62.6194 258.8 62.5343C258.732 62.4493 258.683 62.3518 258.653 62.2475C258.607 62.0339 258.643 61.8105 258.755 61.6227C258.867 61.4348 259.046 61.2965 259.257 61.2358C259.362 61.2056 259.471 61.1965 259.579 61.2091C259.687 61.2216 259.792 61.2554 259.887 61.3087C259.982 61.3619 260.065 61.4335 260.132 61.5192C260.199 61.6049 260.248 61.703 260.277 61.8079Z" fill="#263238"/>
<path d="M259.782 60.549C259.697 60.6815 258.973 60.3443 258.074 60.549C257.175 60.7537 256.614 61.3138 256.523 61.2054C256.433 61.097 256.523 60.9464 256.771 60.6815C257.095 60.338 257.516 60.1007 257.978 60.001C258.444 59.9021 258.93 59.9527 259.366 60.1455C259.685 60.3142 259.824 60.4888 259.782 60.549Z" fill="#263238"/>
<path d="M251.545 63.8311C251.593 64.044 251.557 64.2673 251.445 64.4545C251.332 64.6418 251.152 64.7787 250.941 64.8368C250.835 64.8674 250.723 64.8759 250.613 64.8619C250.503 64.8478 250.397 64.8115 250.301 64.7551C250.206 64.6987 250.123 64.6235 250.057 64.534C249.992 64.4445 249.946 64.3426 249.921 64.2346C249.875 64.0218 249.911 63.7992 250.023 63.6123C250.135 63.4255 250.315 63.2883 250.525 63.2289C250.631 63.1983 250.743 63.1898 250.853 63.2038C250.963 63.2179 251.069 63.2542 251.165 63.3106C251.26 63.367 251.343 63.4422 251.409 63.5317C251.474 63.6212 251.52 63.7231 251.545 63.8311Z" fill="#263238"/>
<path d="M251.092 62.6747C251.014 62.8011 250.283 62.4699 249.384 62.6747C248.485 62.8794 247.924 63.4515 247.803 63.3611C247.682 63.2708 247.803 63.1082 248.057 62.8373C248.38 62.4935 248.801 62.2561 249.264 62.1568C249.73 62.0549 250.216 62.1056 250.652 62.3013C251.008 62.4097 251.146 62.6144 251.092 62.6747Z" fill="#263238"/>
<path d="M255.648 68.3356C256.09 68.0904 256.56 67.9002 257.048 67.7695C257.278 67.6973 257.483 67.6069 257.489 67.4443C257.458 67.2027 257.355 66.976 257.193 66.794C256.861 66.2882 256.511 65.7582 256.149 65.1982C254.689 62.916 253.578 61.0191 253.669 60.983C253.759 60.9468 255.021 62.7233 256.487 65.0055C256.837 65.5716 257.181 66.1075 257.501 66.6194C257.705 66.864 257.815 67.174 257.809 67.4925C257.791 67.5802 257.755 67.663 257.702 67.7349C257.648 67.8067 257.58 67.8659 257.501 67.908C257.382 67.967 257.256 68.0115 257.127 68.0405C256.648 68.1997 256.151 68.2988 255.648 68.3356Z" fill="#263238"/>
<path d="M258.496 78.8014C255.438 79.4932 252.248 79.3222 249.282 78.3076C249.282 78.3076 252.444 82.4265 258.822 80.4574L258.496 78.8014Z" fill="#EB996E"/>
<path d="M251.273 61.3985C251.212 61.6514 250.289 61.6454 249.239 61.9043C248.189 62.1633 247.356 62.5607 247.193 62.356C247.115 62.2596 247.236 62.0067 247.556 61.7538C247.983 61.4009 248.487 61.1533 249.028 61.0312C249.565 60.8978 250.126 60.8978 250.663 61.0312C251.092 61.1034 251.297 61.272 251.273 61.3985Z" fill="#263238"/>
<path d="M259.438 57.7009C259.299 57.9418 258.521 57.8876 257.628 58.0622C256.735 58.2369 256.034 58.538 255.817 58.3573C255.721 58.273 255.817 58.0442 256.077 57.7551C256.475 57.4207 256.957 57.2002 257.471 57.1168C257.978 57.0125 258.504 57.05 258.991 57.2252C259.354 57.3998 259.504 57.5925 259.438 57.7009Z" fill="#263238"/>
<path d="M243.247 51.8054C243.38 52.4582 243.655 53.0739 244.053 53.6085C244.451 54.1432 244.963 54.5837 245.551 54.8987C246.139 55.2138 246.79 55.3956 247.457 55.4313C248.123 55.467 248.79 55.3557 249.408 55.1053C250.368 54.7199 251.351 53.9913 252.317 54.3405C253.282 54.6898 253.663 56.0628 254.61 56.5927C255.962 57.3514 257.591 56.0387 259.136 56.1712C260.343 56.2675 261.254 57.1949 262.19 57.9416C263.125 58.6883 264.422 59.3145 265.472 58.7485C265.219 57.7432 264.848 56.7711 264.368 55.852C263.895 54.9226 263.115 54.1845 262.159 53.7625C261.614 53.611 261.076 53.4321 260.548 53.2265C259.462 52.6665 258.973 51.42 258.177 50.4746C257.657 49.8789 257.003 49.4148 256.269 49.1206C255.534 48.8264 254.74 48.7105 253.952 48.7824C252.643 48.9209 251.406 49.5773 250.09 49.5171C249.119 49.481 248.189 49.0474 247.224 49.0655C245.329 49.0655 243.911 50.7455 242.861 52.3172" fill="#263238"/>
<path d="M249.595 53.1845C248.732 53.1243 246.952 52.9437 246.367 52.3234C245.773 51.6593 245.013 51.1632 244.166 50.8851C243.318 50.6071 242.412 50.5569 241.539 50.7397C240.672 50.9976 239.911 51.5265 239.368 52.2485C238.824 52.9705 238.528 53.8474 238.522 54.7502C237.466 55.0073 236.499 55.5442 235.724 56.3042C234.948 57.0642 234.393 58.019 234.116 59.0678C233.835 60.1648 233.826 61.3135 234.089 62.415C234.352 63.5165 234.879 64.5377 235.625 65.3907C235.986 65.8449 236.315 66.3238 236.609 66.8239C236.199 67.3304 235.84 67.8749 235.535 68.4498C234.159 71.4968 237.9 72.665 237.9 72.665C237.9 74.7184 239.801 74.7064 241.014 74.7004C242.227 74.6944 242.897 77.922 243.844 77.7956L242.855 67.8295C242.995 67.8847 243.144 67.9113 243.295 67.9078C245.582 67.95 244.985 63.6323 244.249 62.4882C244.934 61.6447 245.51 60.718 245.962 59.7302C246.379 58.2224 246.41 56.6345 246.053 55.1115C246.868 55.0152 249.975 53.2146 249.595 53.1845Z" fill="#263238"/>
<path d="M243.199 68.3473C243.121 68.0292 242.964 67.7359 242.742 67.495C242.52 67.254 242.24 67.0733 241.929 66.9698C241.618 66.8663 241.285 66.8433 240.963 66.9031C240.64 66.9629 240.338 67.1034 240.085 67.3115C239.481 67.8294 239.162 68.6965 239.524 70.1478C240.501 74.0258 244.2 72.2494 244.176 72.135C244.152 72.0206 243.615 69.9491 243.199 68.3473Z" fill="#FFBE9D"/>
<path d="M242.643 70.9669C242.643 70.9669 242.589 71.0271 242.486 71.1115C242.344 71.2206 242.164 71.2703 241.986 71.25C241.539 71.2018 241.026 70.6478 240.833 69.9432C240.741 69.612 240.722 69.2647 240.779 68.9255C240.785 68.7955 240.823 68.669 240.889 68.5568C240.956 68.4446 241.048 68.35 241.159 68.2812C241.232 68.2423 241.316 68.2294 241.397 68.2447C241.478 68.2601 241.552 68.3027 241.605 68.3655C241.684 68.4619 241.678 68.5462 241.702 68.5462C241.726 68.5462 241.768 68.4619 241.702 68.3113C241.658 68.2206 241.583 68.1482 241.491 68.1066C241.428 68.0798 241.36 68.0659 241.292 68.0659C241.223 68.0659 241.155 68.0798 241.092 68.1066C240.941 68.1778 240.81 68.2866 240.713 68.4226C240.616 68.5587 240.555 68.7173 240.537 68.8834C240.453 69.2598 240.466 69.6512 240.573 70.0215C240.791 70.7983 241.376 71.4306 241.98 71.4487C242.094 71.457 242.208 71.4379 242.313 71.3928C242.418 71.3477 242.511 71.2781 242.583 71.1897C242.643 71.0633 242.643 70.9669 242.643 70.9669Z" fill="#EB996E"/>
<path d="M264.036 62.934C264.036 62.934 264.386 62.6631 264.881 62.0549C265.567 61.1886 265.986 60.1428 266.088 59.044C266.168 58.2923 266.094 57.5323 265.871 56.8099C265.611 55.9866 265.133 55.2483 264.489 54.6721C263.739 54.023 262.832 53.5817 261.857 53.3926C260.883 53.2034 259.876 53.2729 258.937 53.5942C258.756 53.6545 258.587 53.7448 258.418 53.8171C258.249 53.8893 258.098 53.9977 257.941 54.082L257.7 54.2205V53.9796C257.694 53.5115 257.521 53.0609 257.211 52.709C256.901 52.3668 256.52 52.0956 256.095 51.9142C255.274 51.5783 254.367 51.5129 253.506 51.7275C251.84 52.1069 250.428 52.8656 249.095 53.0162C248.049 53.1969 246.973 52.9822 246.077 52.414C245.842 52.2506 245.638 52.0467 245.474 51.8118C245.42 51.7309 245.375 51.644 245.341 51.5529C245.562 51.8486 245.829 52.1068 246.132 52.3176C247.013 52.8251 248.048 52.9983 249.046 52.8054C249.748 52.6664 250.434 52.4545 251.092 52.1731C251.859 51.8651 252.645 51.6076 253.446 51.4023C253.893 51.2996 254.351 51.2551 254.809 51.2698C255.293 51.295 255.769 51.403 256.215 51.589C256.677 51.7878 257.089 52.086 257.422 52.4622C257.782 52.8684 257.983 53.3897 257.99 53.9315L257.748 53.799C257.911 53.7026 258.074 53.6003 258.249 53.5099C258.424 53.4196 258.617 53.3353 258.81 53.2751C259.801 52.9363 260.863 52.8649 261.89 53.0679C262.917 53.2709 263.872 53.7413 264.658 54.4313C265.333 55.0486 265.828 55.8375 266.088 56.7135C266.313 57.4688 266.379 58.2622 266.281 59.044C266.17 60.1827 265.713 61.2605 264.972 62.1331C264.772 62.3589 264.548 62.561 264.302 62.7353C264.221 62.8106 264.132 62.8772 264.036 62.934Z" fill="#455A64"/>
<path d="M263.246 49.3184C262.854 49.1115 262.433 48.9672 261.997 48.8909C261.496 48.8204 260.986 48.8657 260.506 49.0234C259.89 49.2167 259.353 49.6058 258.979 50.1314L258.828 50.3482L258.738 50.1073C258.423 49.3671 257.916 48.724 257.268 48.2446C256.621 47.7651 255.858 47.4664 255.057 47.3794C253.799 47.333 252.56 47.6896 251.52 48.3971C250.635 48.9716 249.695 49.4577 248.714 49.8484C248.037 50.1028 247.308 50.1876 246.59 50.0953C246.398 50.0643 246.21 50.0139 246.029 49.9447C245.964 49.9208 245.904 49.8884 245.848 49.8484C245.848 49.8484 246.119 49.9266 246.608 49.9748C247.303 50.0185 247.999 49.9032 248.642 49.6376C249.597 49.2271 250.512 48.7292 251.376 48.1502C251.91 47.8205 252.476 47.5441 253.065 47.3252C253.713 47.0894 254.406 47.0009 255.093 47.0663C255.949 47.1589 256.764 47.4818 257.45 48.0004C258.137 48.519 258.67 49.2139 258.991 50.0109H258.756C259.17 49.4412 259.766 49.0292 260.446 48.8427C260.957 48.691 261.497 48.6641 262.021 48.7644C262.356 48.8277 262.676 48.9501 262.968 49.1257C263.161 49.2221 263.252 49.3064 263.246 49.3184Z" fill="#455A64"/>
<path d="M255.316 70.118C255.173 69.9931 255.005 69.9009 254.822 69.8478C254.64 69.7948 254.448 69.7822 254.26 69.8109C254.048 69.8558 253.847 69.945 253.671 70.0726C253.495 70.2003 253.349 70.3635 253.24 70.5516L253.204 70.5998C253.116 70.7352 253.075 70.8964 253.09 71.0574C253.117 71.2315 253.186 71.3964 253.291 71.538C253.396 71.6796 253.534 71.7936 253.693 71.8703C253.948 71.9994 254.237 72.0467 254.52 72.0057C254.803 71.9647 255.066 71.8375 255.274 71.6415C255.471 71.4391 255.585 71.1701 255.593 70.888C255.601 70.6058 255.502 70.331 255.316 70.118Z" fill="#1EA8E7"/>
<path d="M255.6 71.9907C255.558 71.9907 255.497 71.8101 255.334 71.5571C255.128 71.2441 254.837 70.9957 254.496 70.8405C254.145 70.6859 253.757 70.6377 253.379 70.702C253.083 70.7442 252.902 70.8225 252.878 70.7803C252.854 70.7382 253.005 70.5937 253.325 70.4853C253.746 70.3398 254.207 70.3575 254.616 70.5348C255.025 70.7121 255.352 71.0361 255.534 71.4427C255.66 71.7739 255.642 71.9847 255.6 71.9907Z" fill="#263238"/>
<path d="M243.283 72.7313C243.313 72.7313 243.458 73.0324 243.229 73.4901C243.11 73.7248 242.918 73.9144 242.682 74.03C242.445 74.1456 242.177 74.1809 241.919 74.1304C241.66 74.0799 241.426 73.9465 241.25 73.7504C241.075 73.5543 240.969 73.3064 240.948 73.0445C240.928 72.7469 241.016 72.4522 241.195 72.2135C241.509 71.81 241.865 71.804 241.859 71.8401C241.853 71.8762 241.593 71.9726 241.382 72.3339C241.261 72.5388 241.21 72.7778 241.237 73.0144C241.261 73.1515 241.313 73.2822 241.391 73.3974C241.469 73.5127 241.571 73.61 241.69 73.6828C241.807 73.7584 241.94 73.8078 242.079 73.8275C242.217 73.8473 242.358 73.8369 242.492 73.7972C242.715 73.7196 242.907 73.5742 243.042 73.3817C243.153 73.1777 243.234 72.9586 243.283 72.7313Z" fill="#6E4BE8"/>
<path d="M241.249 72.5026C241.28 72.5026 241.249 72.7073 240.966 72.8338C240.809 72.9066 240.632 72.9236 240.465 72.882C240.317 72.846 240.182 72.7674 240.079 72.6559C239.975 72.5444 239.906 72.405 239.881 72.2549C239.856 72.1049 239.876 71.9507 239.938 71.8117C240 71.6727 240.101 71.5549 240.23 71.4729C240.477 71.3223 240.67 71.3826 240.664 71.4247C240.658 71.4669 240.513 71.503 240.362 71.6475C240.269 71.7348 240.205 71.8496 240.182 71.9751C240.158 72.1007 240.174 72.2306 240.23 72.346C240.294 72.4548 240.391 72.5407 240.507 72.5915C240.623 72.6423 240.751 72.6554 240.875 72.6291C241.099 72.5809 241.207 72.4725 241.249 72.5026Z" fill="#6E4BE8"/>
<path d="M247.881 125.982C247.881 125.982 262.823 126.849 271.658 126.927C278.495 126.994 281.549 125.175 282.913 120.791C284.065 117.112 281.597 110.048 281.597 110.048C276.968 110.048 274.114 110.705 271.139 112.102L271.93 115.329L247.839 117.401L247.881 125.982Z" fill="#FFBE9D"/>
<path d="M276.957 118.774C276.307 117.932 275.548 117.181 274.7 116.54C273.792 115.985 272.814 115.556 271.791 115.263C272.113 115.216 272.441 115.243 272.75 115.341C273.509 115.526 274.228 115.844 274.875 116.281C275.521 116.72 276.081 117.273 276.528 117.913C276.733 118.165 276.879 118.459 276.957 118.774Z" fill="#EB996E"/>
<path d="M242.414 112.078C242.414 112.078 237.791 113.186 234.4 115.45L238.021 125.241C239.228 128.457 242.915 130.059 245.866 128.367C250.41 125.777 252.015 118.214 252.015 118.214L257.006 96.6078L248.678 91.4351L242.396 112.078" fill="#FFBE9D"/>
<path d="M248.678 91.4351L249.016 84.3294L247.17 77.1033C247.067 76.7059 247.013 76.2061 247.339 75.9652C247.5 75.8415 247.7 75.7776 247.903 75.7842C248.107 75.7907 248.302 75.8675 248.455 76.0013C248.956 76.5132 251.37 82.836 251.37 82.836C251.37 82.836 255.033 80.6381 255.684 80.5357C256.336 80.4334 257.157 82.3904 257.205 82.547C257.229 82.9863 257.229 83.4265 257.205 83.8658C257.205 83.8658 259.468 83.938 259.673 84.2451C259.838 84.8705 259.925 85.5136 259.933 86.1601C259.933 86.1601 260.892 86.4672 261.043 87.1958C261.194 87.9245 261.508 89.1107 261.043 89.3697C260.579 89.6286 259.637 90.1585 259.637 90.1585C259.637 90.1585 259.257 93.8439 259.154 94.1751C259.052 94.5063 256.934 96.5838 256.934 96.5838L248.678 91.4351Z" fill="#FFBE9D"/>
<path d="M241.002 128.517C241.002 128.517 241.231 128.643 241.696 128.794C242.386 129.013 243.117 129.071 243.832 128.963C244.978 128.801 246.05 128.307 246.916 127.541C248.064 126.501 249.034 125.28 249.789 123.928C250.232 123.126 250.607 122.288 250.911 121.423C251.226 120.476 251.484 119.511 251.683 118.533C252.154 116.502 252.663 114.324 253.21 111.999L256.831 96.5654V96.5232H256.861C257.278 96.1198 257.694 95.6982 258.11 95.2707C258.316 95.0539 258.521 94.8371 258.714 94.6143C258.804 94.4999 258.907 94.3855 258.985 94.2711C259.064 94.1567 259.058 94.0543 259.088 93.8977C259.251 92.6934 259.378 91.4469 259.51 90.1943V90.11L259.583 90.0679L260.735 89.4235C260.82 89.3754 260.953 89.3091 261.007 89.267C261.066 89.2155 261.104 89.1452 261.116 89.0683C261.146 88.8687 261.146 88.6656 261.116 88.4661C261.057 88.0245 260.966 87.5877 260.844 87.1594C260.744 86.973 260.607 86.8085 260.442 86.6751C260.278 86.5418 260.088 86.4424 259.885 86.3825L259.782 86.3464V86.238C259.782 85.8888 259.746 85.5335 259.704 85.1782C259.687 85.0002 259.661 84.8233 259.625 84.6483C259.611 84.5719 259.589 84.4972 259.559 84.4255C259.559 84.3833 259.559 84.4255 259.516 84.3893C259.485 84.3731 259.453 84.359 259.42 84.3472C258.692 84.1876 257.95 84.1029 257.205 84.0943H257.048V83.9377C257.048 83.5704 257.048 83.1549 257.048 82.7333C257.023 82.5916 256.974 82.4552 256.903 82.3299C256.843 82.1854 256.771 82.0408 256.698 81.9023C256.558 81.6226 256.393 81.3565 256.203 81.1075C256.122 80.99 256.019 80.8881 255.902 80.8064C255.857 80.7696 255.802 80.7467 255.744 80.7403C255.686 80.7339 255.628 80.7443 255.576 80.7702C255.285 80.8822 255.001 81.0109 254.725 81.1556C253.603 81.7578 252.504 82.36 251.436 83.0164L251.273 83.1127L251.207 82.9441C250.639 81.5169 250.072 80.1078 249.517 78.7289C249.239 78.0364 248.968 77.3499 248.69 76.6634C248.646 76.5119 248.56 76.3757 248.443 76.2695C248.326 76.1633 248.182 76.0912 248.026 76.0612C247.882 76.0146 247.726 76.0177 247.584 76.0701C247.442 76.1226 247.321 76.2212 247.242 76.3503C247.168 76.4797 247.136 76.6293 247.151 76.7778C247.151 76.9163 247.236 77.115 247.278 77.2836L247.55 78.3194C247.731 79.0059 247.912 79.6923 248.087 80.3668C248.445 81.7157 248.793 83.0405 249.131 84.3412V84.3833C249.01 86.8563 248.895 89.2248 248.787 91.489V91.5191C246.506 98.9259 244.617 105.068 243.289 109.374L241.738 114.342L241.322 115.642C241.225 115.937 241.165 116.088 241.165 116.088C241.165 116.088 241.201 115.931 241.28 115.63L241.66 114.318C242.01 113.155 242.511 111.469 243.144 109.332L248.539 91.4469C248.644 89.1907 248.751 86.8221 248.859 84.3412V84.3833C248.513 83.0906 248.161 81.7658 247.803 80.4089C247.622 79.7345 247.441 79.054 247.26 78.3676L246.989 77.3258C246.931 77.1487 246.887 76.9675 246.856 76.7838C246.834 76.5748 246.878 76.3641 246.982 76.1816C247.091 75.9908 247.264 75.8454 247.471 75.7722C247.669 75.7166 247.877 75.7166 248.075 75.7722C248.279 75.8134 248.469 75.9091 248.624 76.0492C248.775 76.1909 248.888 76.3693 248.95 76.567C249.227 77.2535 249.499 77.94 249.783 78.6325C250.338 80.0255 250.901 81.4306 251.472 82.8478L251.249 82.7755C252.329 82.1372 253.421 81.4989 254.562 80.9027C254.851 80.7471 255.149 80.6103 255.455 80.4932C255.552 80.459 255.654 80.4447 255.757 80.4511C255.861 80.4668 255.96 80.506 256.047 80.5655C256.192 80.6674 256.32 80.7914 256.427 80.9328C256.629 81.1984 256.804 81.4827 256.952 81.7819C257.03 81.9264 257.103 82.077 257.169 82.2275C257.255 82.387 257.312 82.5602 257.338 82.7394C257.338 83.1669 257.338 83.5644 257.338 83.9437L257.187 83.7811C257.963 83.7881 258.736 83.8789 259.492 84.0521C259.546 84.0701 259.599 84.0923 259.649 84.1184C259.713 84.1563 259.765 84.2103 259.8 84.2749C259.849 84.372 259.883 84.4753 259.903 84.582C259.945 84.7687 259.963 84.9554 259.987 85.1421C260.029 85.5094 260.054 85.8707 260.066 86.226L259.957 86.0875C260.204 86.1597 260.433 86.2813 260.631 86.4449C260.83 86.6085 260.992 86.8106 261.11 87.0389C261.242 87.4945 261.339 87.9595 261.399 88.43C261.441 88.673 261.441 88.9215 261.399 89.1646C261.367 89.3096 261.288 89.4404 261.176 89.538C261.077 89.6045 260.974 89.6648 260.868 89.7186L259.716 90.3629L259.794 90.2425C259.655 91.5011 259.529 92.7416 259.36 93.964L259.323 94.1928C259.309 94.2886 259.272 94.3794 259.215 94.4578C259.122 94.5864 259.021 94.7091 258.913 94.8251C258.714 95.0599 258.503 95.2767 258.31 95.4935C257.887 95.9271 257.471 96.3486 257.054 96.7581L257.091 96.6858C255.763 102.274 254.532 107.465 253.428 112.108C252.876 114.428 252.359 116.604 251.877 118.635C251.668 119.618 251.4 120.587 251.074 121.538C250.765 122.406 250.381 123.246 249.927 124.049C249.155 125.416 248.162 126.647 246.989 127.692C246.094 128.463 244.992 128.955 243.82 129.107C243.091 129.203 242.349 129.127 241.654 128.884C241.476 128.823 241.305 128.747 241.141 128.655L241.002 128.517Z" fill="#EB996E"/>
<path d="M257.229 83.8837C257.229 83.9319 257.024 83.956 256.704 83.968C256.298 83.9757 255.894 84.0241 255.497 84.1125C255.116 84.2072 254.764 84.3932 254.471 84.6545C254.254 84.8592 254.157 85.0339 254.109 85.0158C254.061 84.9977 254.109 84.787 254.308 84.51C254.59 84.1592 254.981 83.9114 255.419 83.8054C255.842 83.7082 256.28 83.6878 256.71 83.7452C257.036 83.7873 257.229 83.8415 257.229 83.8837Z" fill="#EB996E"/>
<path d="M255.461 83.9499C255.377 83.9499 255.371 83.7331 255.461 83.5344C255.552 83.3356 255.66 83.2032 255.739 83.2333C255.817 83.2634 255.829 83.45 255.739 83.6488C255.648 83.8475 255.54 83.98 255.461 83.9499Z" fill="#EB996E"/>
<path d="M260.06 86.1416C259.473 86.318 258.862 86.4013 258.249 86.3885C258.057 86.3831 257.867 86.4234 257.694 86.5061C257.521 86.5889 257.37 86.7116 257.254 86.8642C257.091 87.1111 257.145 87.3159 257.097 87.3279C257.048 87.34 256.904 87.1232 257.054 86.7679C257.137 86.5628 257.289 86.3925 257.483 86.2862C257.708 86.1692 257.954 86.0976 258.207 86.0754C258.823 85.9823 259.452 86.0047 260.06 86.1416Z" fill="#EB996E"/>
<path d="M259.655 88.3037C259.74 88.3037 259.794 88.7553 259.764 89.2973C259.733 89.8393 259.649 90.2849 259.565 90.2788C259.48 90.2728 259.426 89.8332 259.45 89.2853C259.474 88.7373 259.54 88.3037 259.655 88.3037Z" fill="#EB996E"/>
<path d="M230.737 93.8979C230.737 93.8979 230.514 94.1328 230.2 94.6145C229.779 95.3114 229.502 96.0854 229.385 96.8908C229.213 98.0872 229.177 99.2992 229.277 100.504C229.343 101.865 229.452 103.364 229.621 104.93C229.907 107.604 230.332 110.261 230.894 112.891C231.105 113.896 231.298 114.697 231.437 115.299C231.497 115.546 231.546 115.763 231.588 115.944C231.63 116.124 231.636 116.173 231.636 116.173C231.636 116.173 231.606 116.094 231.564 115.95L231.389 115.311C231.238 114.751 231.033 113.938 230.785 112.903C230.199 110.274 229.762 107.614 229.476 104.936C229.307 103.364 229.204 101.865 229.144 100.504C229.053 99.2983 229.098 98.0864 229.277 96.8908C229.406 96.0784 229.702 95.3014 230.146 94.6085C230.312 94.3479 230.511 94.1092 230.737 93.8979Z" fill="white"/>
<path d="M243.44 85.7144L243.301 85.7866L242.903 85.9793C242.559 86.1419 242.058 86.3828 241.461 86.714C239.901 87.5763 238.388 88.521 236.929 89.5442C235.203 90.7486 233.676 91.8385 232.559 92.6334L231.238 93.5728L230.87 93.8197C230.785 93.8739 230.743 93.904 230.737 93.898L230.858 93.8016L231.208 93.5306L232.511 92.5671C233.609 91.7482 235.13 90.6221 236.856 89.4358C238.321 88.4142 239.844 87.4793 241.418 86.6357C242.022 86.3165 242.529 86.0817 242.885 85.9311L243.295 85.7625C243.34 85.7386 243.389 85.7223 243.44 85.7144Z" fill="white"/>
<path d="M272.213 89.6285C272.213 89.6285 272.177 89.6285 272.111 89.5562L271.839 89.3213C271.504 89.0361 271.152 88.7726 270.783 88.5325C269.561 87.7484 268.26 87.0925 266.903 86.5754C265.552 86.0413 264.172 85.5829 262.769 85.2024C262.232 85.0519 261.791 84.9435 261.49 84.8652L261.14 84.7809C261.098 84.7723 261.057 84.7581 261.019 84.7388C261.019 84.7388 261.061 84.7388 261.146 84.7388L261.496 84.799C261.804 84.8592 262.25 84.9556 262.787 85.0941C264.202 85.4526 265.593 85.9011 266.951 86.4369C268.315 86.9606 269.616 87.6331 270.831 88.4422C271.338 88.7811 271.802 89.1794 272.213 89.6285Z" fill="white"/>
<path d="M243.609 135.599C243.528 135.579 243.449 135.55 243.374 135.514C243.163 135.426 242.961 135.319 242.77 135.195C242.115 134.801 241.642 134.165 241.455 133.425C241.289 132.684 241.371 131.91 241.69 131.221C241.781 131.006 241.898 130.804 242.04 130.619C242.137 130.492 242.203 130.432 242.209 130.438C242.044 130.693 241.898 130.961 241.775 131.239C241.488 131.914 241.421 132.661 241.581 133.377C241.762 134.087 242.203 134.704 242.819 135.105C243.289 135.442 243.621 135.574 243.609 135.599Z" fill="white"/>
<path d="M241.69 129.077C241.823 129.312 241.919 129.566 241.974 129.83C242.069 130.085 242.126 130.353 242.142 130.625C241.909 130.136 241.756 129.614 241.69 129.077Z" fill="white"/>
<path d="M249.849 264.085L268.255 263.995L267.923 200.489L267.748 135.875L242.819 135.568L238.335 143.999C236.501 147.391 235.332 151.1 234.889 154.928C234.575 157.843 236.766 167.363 237.532 169.784L244.394 191.517L249.849 264.085Z" fill="#263238"/>
<path d="M273.149 135.984L293.377 191.005C294.575 194.55 294.973 198.316 294.542 202.032C294.111 205.749 292.862 209.324 290.885 212.503L267.386 258.239L254.182 241.757L273.831 200.809L256.523 172.777L259.438 136.044L267.597 135.918L273.149 135.984Z" fill="#263238"/>
<path d="M266.07 154.417C266.07 154.417 266.07 154.513 266.1 154.7C266.13 154.887 266.131 155.176 266.149 155.525C266.191 156.272 266.245 157.332 266.318 158.717C266.456 161.505 266.649 165.509 266.891 170.453C267.132 175.397 267.392 181.292 267.693 187.856C267.838 191.132 267.995 194.57 268.152 198.135C268.273 199.942 268.219 201.748 268.237 203.555C268.255 205.361 268.237 207.27 268.237 209.161C268.237 224.294 268.285 237.993 268.303 247.923C268.303 252.873 268.303 256.884 268.303 259.672C268.303 261.045 268.303 262.123 268.303 262.863C268.303 263.219 268.303 263.466 268.303 263.694C268.303 263.923 268.303 263.977 268.303 263.977C268.303 263.977 268.303 263.881 268.303 263.694V262.863C268.303 262.123 268.303 261.057 268.267 259.672C268.267 256.884 268.219 252.873 268.182 247.923C268.14 237.993 268.086 224.3 268.025 209.167C268.025 207.276 268.025 205.403 268.025 203.561C268.025 201.718 268.056 199.906 267.941 198.141C267.79 194.576 267.639 191.138 267.5 187.862C267.223 181.316 266.975 175.415 266.764 170.459C266.553 165.503 266.408 161.511 266.293 158.723C266.245 157.35 266.209 156.272 266.185 155.531C266.185 155.176 266.185 154.929 266.185 154.7C266.185 154.471 266.07 154.417 266.07 154.417Z" fill="#455A64"/>
<path d="M265.605 137.08C265.677 137.274 265.721 137.476 265.738 137.682C265.799 138.074 265.871 138.634 265.955 139.332C266.112 140.723 266.281 142.656 266.384 144.794C266.486 146.932 266.48 148.871 266.45 150.274C266.45 150.972 266.408 151.538 266.378 151.93C266.383 152.133 266.359 152.336 266.305 152.532C266.237 151.779 266.211 151.023 266.227 150.268C266.227 148.865 266.161 146.932 266.07 144.8C265.98 142.668 265.835 140.741 265.732 139.344C265.648 138.592 265.605 137.837 265.605 137.08Z" fill="#455A64"/>
<path d="M261.55 138.285C261.353 138.471 261.213 138.709 261.146 138.971C261.116 139.103 261.122 139.24 261.162 139.369C261.202 139.498 261.276 139.614 261.375 139.706C261.496 139.813 261.645 139.886 261.805 139.914C261.964 139.943 262.129 139.927 262.28 139.868C262.425 139.795 262.546 139.681 262.63 139.542C262.713 139.402 262.755 139.242 262.751 139.079C262.745 138.945 262.705 138.814 262.635 138.699C262.564 138.584 262.465 138.489 262.347 138.423C262.101 138.304 261.828 138.255 261.556 138.279C261.556 138.279 261.616 138.2 261.773 138.158C261.999 138.097 262.24 138.121 262.449 138.224C262.617 138.296 262.761 138.412 262.867 138.559C262.974 138.707 263.038 138.88 263.053 139.061C263.077 139.286 263.029 139.513 262.917 139.71C262.805 139.906 262.633 140.063 262.427 140.157C262.221 140.251 261.99 140.277 261.768 140.233C261.545 140.189 261.342 140.076 261.188 139.91C261.06 139.783 260.97 139.623 260.926 139.448C260.883 139.273 260.888 139.089 260.941 138.917C261.003 138.694 261.139 138.499 261.327 138.363C261.453 138.285 261.544 138.285 261.55 138.285Z" fill="#455A64"/>
<path d="M251.894 137.219C251.985 137.408 252.041 137.612 252.057 137.821C252.158 138.361 252.176 138.913 252.112 139.459C252.029 140.274 251.793 141.067 251.418 141.795C250.966 142.699 250.3 143.479 249.477 144.068C248.655 144.656 247.701 145.036 246.699 145.174C245.895 145.29 245.077 145.259 244.285 145.083C243.747 144.958 243.231 144.755 242.752 144.481C242.568 144.397 242.4 144.281 242.257 144.138C242.922 144.445 243.618 144.679 244.333 144.836C245.191 145.015 246.078 145.015 246.936 144.834C247.794 144.654 248.605 144.298 249.318 143.788C250.031 143.279 250.63 142.627 251.078 141.875C251.526 141.122 251.812 140.285 251.919 139.417C251.988 138.685 251.98 137.949 251.894 137.219Z" fill="#455A64"/>
<path d="M275.574 142.5C275.183 142.549 274.785 142.501 274.416 142.361C273.501 142.081 272.679 141.559 272.038 140.85C271.393 140.144 270.949 139.279 270.753 138.344C270.659 137.961 270.659 137.56 270.753 137.176C270.813 137.176 270.813 137.622 270.994 138.29C271.242 139.161 271.686 139.964 272.292 140.639C272.903 141.308 273.661 141.828 274.506 142.156C275.134 142.385 275.58 142.433 275.574 142.5Z" fill="#455A64"/>
<path d="M282.762 201.808C282.46 202.151 282.098 202.437 281.694 202.651C281.271 202.922 280.809 203.125 280.324 203.253C279.714 203.415 279.071 203.398 278.471 203.205C277.419 202.804 276.517 202.089 275.888 201.158C275.6 200.805 275.362 200.414 275.182 199.996C275.507 200.309 275.802 200.652 276.063 201.019C276.707 201.867 277.574 202.52 278.568 202.904C279.074 203.04 279.604 203.071 280.123 202.994C280.642 202.918 281.14 202.735 281.585 202.459C281.965 202.221 282.358 202.004 282.762 201.808Z" fill="#455A64"/>
<path d="M278.157 205.319C276.807 203.777 275.624 202.098 274.627 200.309C275.975 201.848 277.166 203.519 278.181 205.295L278.157 205.319Z" fill="#455A64"/>
</svg>
