<svg width="320" height="275" viewBox="0 0 320 275" fill="none" xmlns="http://www.w3.org/2000/svg">
<g clip-path="url(#clip0)">
<g opacity="0.39">
<path opacity="0.39" d="M234.986 221.766C277.204 179.671 277.204 111.422 234.985 69.3266C192.767 27.2317 124.317 27.2317 82.0979 69.3266C39.8791 111.422 39.8791 179.671 82.0979 221.766C124.317 263.861 192.767 263.861 234.986 221.766Z" fill="#35C9FC"/>
<path opacity="0.73" d="M246.829 171.399V207.756C242.855 213.359 238.361 218.576 233.406 223.338V171.399C233.406 171.139 226.825 165.737 221.807 161.652V159.28L227.867 157.722C230.351 157.084 232.977 157.285 235.334 158.293C236.389 158.756 237.467 159.167 238.563 159.522V164.3C243.582 168.386 246.759 171.07 246.829 171.33V171.399Z" fill="#35C9FC"/>
</g>
<path d="M4.68921 7.25415L36.3958 81.4751L59.594 65.651L73.0163 85.1281L75.4473 52.2853L103.507 35.232L4.68921 7.25415Z" fill="#6E4BE8"/>
<path d="M64.7337 62.1534L36.3957 81.4748L59.594 65.6507L73.0163 85.1278L75.4472 52.285L30.7351 25.7441L64.7337 62.1534Z" fill="#554AC6"/>
<path d="M74.8569 60.3356L30.7351 25.7441L75.4472 52.285L74.8569 60.3356Z" fill="#7D64F9"/>
<path d="M73.5883 94.3733C73.3452 92.9363 73.0326 91.4993 72.6506 90.0969L74.8211 89.5083C75.2205 90.9799 75.5504 92.4861 75.8109 93.9924L73.5883 94.3733Z" fill="#35C9FC"/>
<path d="M47.3343 144.789C44.1079 144.583 40.9904 143.545 38.2877 141.776L39.5206 139.906C41.8949 141.465 44.6362 142.378 47.4733 142.555L47.3343 144.789ZM56.6761 142.953L55.6864 140.945C58.2823 139.634 60.5995 137.835 62.5104 135.647L64.2468 137.154C62.1304 139.564 59.5577 141.535 56.6761 142.953ZM32.0193 134.609C30.7456 132.053 30.0801 129.239 30.0746 126.385C30.0746 126.16 30.0746 125.935 30.0746 125.71V125.225L32.3319 125.381V125.796V126.385C32.3592 128.874 32.9529 131.325 34.0683 133.552L32.0193 134.609ZM119.134 134.106V131.856C122.069 131.856 125.073 131.717 128.094 131.492L128.268 133.743C125.194 133.968 122.121 134.089 119.134 134.106ZM110.001 133.812L108.56 133.691C105.799 133.466 103.35 133.154 100.902 132.739L101.284 130.523C103.611 130.938 106.059 131.233 108.751 131.458L110.157 131.561L110.001 133.812ZM137.332 132.791L137.036 130.557C139.936 130.159 142.923 129.674 145.909 129.103L146.326 131.302C143.305 131.89 140.266 132.392 137.332 132.791ZM92.0291 130.523C89.4726 129.663 87.002 128.568 84.6494 127.251L83.5902 126.645L84.6842 124.654L85.6739 125.225C87.894 126.458 90.218 127.495 92.6195 128.324L92.0291 130.523ZM69.456 129.622L67.5112 128.497C68.9707 125.943 70.2025 123.267 71.1924 120.498L73.3108 121.26C72.2705 124.153 70.9808 126.951 69.456 129.622ZM155.216 129.363L154.678 127.181C157.509 126.506 160.426 125.727 163.36 124.896L163.985 127.043C161.033 127.908 158.012 128.688 155.234 129.363H155.216ZM172.719 124.394L172.025 122.264C174.872 121.347 177.738 120.377 180.568 119.373L181.314 121.485C178.484 122.489 175.619 123.476 172.737 124.394H172.719ZM76.0022 121.433C73.8668 119.823 71.6278 118.354 69.2997 117.036L68.5531 116.638L69.5775 114.647L70.3763 115.079C72.7898 116.443 75.1101 117.964 77.3219 119.633L76.0022 121.433ZM35.5095 117.971L33.9467 116.378C36.2942 114.236 39.1413 112.712 42.2293 111.946L42.9934 114.058C40.2107 114.767 37.6424 116.139 35.5095 118.057V117.971ZM60.3226 113.591C57.7635 113.018 55.1489 112.728 52.5262 112.725H51.6059V110.474C54.6923 110.44 57.7714 110.783 60.774 111.496L60.3226 113.591ZM75.7417 112.275L73.5192 111.877C74.0362 108.973 74.3034 106.031 74.3179 103.082H76.5752C76.5637 106.193 76.2849 109.297 75.7417 112.361V112.275Z" fill="#35C9FC"/>
<path d="M189.944 118.317L189.145 116.222L193.347 114.595L194.163 116.69C192.739 117.244 191.368 117.728 189.944 118.317Z" fill="#35C9FC"/>
<path d="M260.841 173.13C260.281 173.124 259.743 172.913 259.329 172.536C258.916 172.159 258.657 171.643 258.601 171.087C258.572 170.794 258.602 170.497 258.689 170.215C258.776 169.934 258.918 169.672 259.107 169.445C259.296 169.218 259.528 169.03 259.79 168.893C260.052 168.756 260.338 168.672 260.633 168.646C274.295 167.299 286.916 160.765 295.881 150.398C296.069 150.152 296.305 149.947 296.575 149.796C296.846 149.645 297.144 149.551 297.452 149.52C297.76 149.489 298.072 149.522 298.367 149.616C298.662 149.71 298.934 149.864 299.167 150.067C299.4 150.271 299.589 150.52 299.721 150.8C299.853 151.079 299.926 151.383 299.935 151.691C299.945 152 299.89 152.307 299.775 152.594C299.66 152.881 299.488 153.141 299.267 153.359C289.549 164.589 275.872 171.662 261.067 173.113L260.841 173.13Z" fill="#35C9FC"/>
<path d="M233.407 171.399L154.956 217.59L76.506 171.399C76.506 171.104 80.8991 167.503 87.5147 162.154L87.6884 161.998C109.393 144.39 154.956 108.483 154.956 108.483C154.956 108.483 200.554 144.39 222.259 161.929C228.961 167.365 233.372 171.035 233.441 171.33C233.432 171.354 233.421 171.377 233.407 171.399Z" fill="#6F4D18"/>
<path d="M187.218 70.2909H102.569C99.0827 70.2909 95.7393 71.6717 93.2743 74.1295C90.8092 76.5874 89.4243 79.9209 89.4243 83.3968V210.994C89.4243 214.47 90.8092 217.803 93.2743 220.261C95.7393 222.719 99.0827 224.1 102.569 224.1H208.628C212.114 224.1 215.457 222.719 217.922 220.261C220.387 217.803 221.772 214.47 221.772 210.994V104.744L187.218 70.2909Z" fill="white"/>
<path d="M187.218 91.6379C187.218 95.1138 188.603 98.4473 191.068 100.905C193.533 103.363 196.877 104.744 200.363 104.744H221.773L187.218 70.2909V91.6379Z" fill="#E5E6E6"/>
<path d="M143.321 91.8455H114.133C111.543 91.8455 109.444 93.9383 109.444 96.52V125.623C109.444 128.205 111.543 130.298 114.133 130.298H143.321C145.911 130.298 148.01 128.205 148.01 125.623V96.52C148.01 93.9383 145.911 91.8455 143.321 91.8455Z" fill="#35C9FC"/>
<path d="M183.329 140.997H113.265C112.266 140.997 111.308 141.393 110.601 142.098C109.894 142.802 109.497 143.758 109.497 144.754C109.497 145.751 109.894 146.706 110.601 147.411C111.308 148.115 112.266 148.511 113.265 148.511H183.329C183.824 148.511 184.314 148.414 184.771 148.225C185.228 148.036 185.643 147.76 185.993 147.411C186.343 147.062 186.621 146.648 186.81 146.192C186.999 145.736 187.097 145.247 187.097 144.754C187.097 144.261 186.999 143.772 186.81 143.316C186.621 142.861 186.343 142.446 185.993 142.098C185.643 141.749 185.228 141.472 184.771 141.283C184.314 141.094 183.824 140.997 183.329 140.997Z" fill="#D8D9D9"/>
<path d="M183.329 159.73H113.265C112.771 159.73 112.281 159.827 111.823 160.016C111.366 160.205 110.951 160.481 110.601 160.83C110.251 161.179 109.974 161.593 109.784 162.049C109.595 162.505 109.497 162.993 109.497 163.487C109.497 164.485 109.894 165.442 110.6 166.149C111.306 166.857 112.264 167.256 113.265 167.261H183.329C184.33 167.256 185.288 166.857 185.994 166.149C186.7 165.442 187.097 164.485 187.097 163.487C187.097 162.993 186.999 162.505 186.81 162.049C186.621 161.593 186.343 161.179 185.993 160.83C185.643 160.481 185.228 160.205 184.771 160.016C184.314 159.827 183.824 159.73 183.329 159.73Z" fill="#D8D9D9"/>
<path d="M151.518 177.908H113.317C112.316 177.913 111.358 178.313 110.652 179.02C109.945 179.727 109.549 180.685 109.549 181.683C109.549 182.679 109.946 183.635 110.653 184.339C111.359 185.044 112.318 185.44 113.317 185.44H151.518C152.517 185.44 153.475 185.044 154.182 184.339C154.889 183.635 155.286 182.679 155.286 181.683C155.286 180.685 154.889 179.727 154.183 179.02C153.477 178.313 152.519 177.913 151.518 177.908Z" fill="#D8D9D9"/>
<path d="M233.407 171.399V246.451C233.397 248.976 232.386 251.396 230.593 253.18C228.8 254.964 226.372 255.968 223.839 255.973H86.0388C83.5089 255.968 81.0843 254.963 79.297 253.178C77.5098 251.392 76.506 248.973 76.506 246.451V171.399L154.956 217.521L233.407 171.399Z" fill="#6E4BE8"/>
<path d="M230.749 253.047L180.255 202.701L154.956 217.573L129.639 202.701L79.1449 253.047C80.0371 253.99 81.1137 254.741 82.3083 255.253C83.5029 255.765 84.7901 256.028 86.0905 256.025H223.891C225.176 256.015 226.447 255.746 227.625 255.235C228.804 254.723 229.867 253.979 230.749 253.047Z" fill="#554AC6"/>
<path d="M249.259 68.4382C238.254 69.591 228.001 74.5521 220.283 82.4593C212.565 90.3666 207.87 100.72 207.013 111.721C206.194 122.456 209.127 133.142 215.313 141.967C216.392 143.544 217.057 145.365 217.248 147.264C217.439 149.163 217.15 151.08 216.407 152.839L212.674 161.773L227.902 157.843C230.379 157.197 233.002 157.398 235.351 158.414C241.961 161.257 249.137 162.553 256.327 162.201C263.518 161.85 270.532 159.86 276.831 156.386C283.131 152.911 288.548 148.043 292.667 142.156C296.787 136.27 299.499 129.52 300.595 122.426C301.691 115.331 301.143 108.081 298.992 101.231C296.841 94.3808 293.144 88.1131 288.186 82.9089C283.228 77.7046 277.14 73.7022 270.389 71.2087C263.638 68.7153 256.404 67.7971 249.242 68.5247L249.259 68.4382Z" fill="#35C9FC"/>
<path d="M255.251 138.954L257.838 136.357C257.838 136.357 255.789 131.527 264.419 123.373C269.541 118.525 270.687 113.833 270.27 109.99C269.919 106.988 268.562 104.193 266.42 102.056C264.277 99.9197 261.473 98.5668 258.463 98.2168C254.626 97.8013 249.902 98.9439 245.041 104.069C236.862 112.725 232.018 110.613 232.018 110.613L229.43 113.193L255.251 138.954Z" fill="white"/>
<path d="M235.195 123.165C234.175 124.535 233.682 126.226 233.808 127.928C233.933 129.631 234.668 131.231 235.879 132.438C237.089 133.645 238.695 134.378 240.402 134.503C242.109 134.628 243.805 134.137 245.179 133.12L235.195 123.165Z" fill="white"/>
<path d="M272.023 101.35L270.408 102.961C269.14 100.963 267.437 99.2766 265.425 98.0263L267.057 96.3989C267.383 96.0738 267.77 95.8159 268.196 95.6399C268.622 95.464 269.079 95.3734 269.54 95.3734C270.001 95.3734 270.458 95.464 270.884 95.6399C271.31 95.8159 271.697 96.0738 272.023 96.3989C272.349 96.724 272.608 97.11 272.784 97.5348C272.961 97.9596 273.052 98.4149 273.052 98.8747C273.052 99.3345 272.961 99.7898 272.784 100.215C272.608 100.639 272.349 101.025 272.023 101.35Z" fill="white"/>
<path d="M252.75 68.2479C258.746 70.0467 264.246 73.2008 268.82 77.4647C273.394 81.7286 276.92 86.9874 279.123 92.8318C281.326 98.6762 282.147 104.949 281.521 111.161C280.896 117.373 278.842 123.358 275.518 128.649C272.194 133.941 267.691 138.396 262.358 141.669C257.025 144.942 251.007 146.943 244.772 147.518C238.536 148.093 232.252 147.226 226.408 144.984C220.564 142.742 215.317 139.185 211.076 134.591C212.263 137.172 213.681 139.641 215.313 141.967C216.392 143.544 217.057 145.365 217.248 147.264C217.439 149.163 217.15 151.08 216.407 152.839L212.674 161.773L227.902 157.843C230.379 157.197 233.002 157.398 235.351 158.414C241.83 161.234 248.861 162.564 255.925 162.307C262.989 162.049 269.904 160.211 276.159 156.928C282.413 153.644 287.847 149 292.057 143.339C296.268 137.678 299.147 131.145 300.482 124.224C301.817 117.303 301.573 110.171 299.769 103.357C297.965 96.5425 294.646 90.2201 290.059 84.8579C285.472 79.4957 279.734 75.2311 273.269 72.3798C266.805 69.5286 259.78 68.1637 252.715 68.3864L252.75 68.2479Z" fill="#1EA8E7"/>
<path d="M47.681 194.945C46.1866 194.945 44.7257 195.386 43.4822 196.212C42.2388 197.038 41.2684 198.213 40.6935 199.589C40.1185 200.964 39.9645 202.478 40.2511 203.94C40.5376 205.403 41.2518 206.748 42.3036 207.806C43.3555 208.865 44.6979 209.589 46.1619 209.888C47.6258 210.187 49.1458 210.047 50.5303 209.487C51.9148 208.926 53.102 207.969 53.9421 206.737C54.7823 205.505 55.2379 204.052 55.2516 202.562C55.2608 201.565 55.0718 200.576 54.6954 199.652C54.3191 198.729 53.7629 197.888 53.0589 197.18C52.355 196.472 51.5173 195.909 50.5943 195.526C49.6712 195.142 48.681 194.945 47.681 194.945ZM47.681 205.54C47.0736 205.54 46.4801 205.359 45.9761 205.021C45.4721 204.683 45.0806 204.203 44.8515 203.643C44.6224 203.082 44.566 202.466 44.6897 201.873C44.8134 201.28 45.1114 200.737 45.5458 200.314C45.9801 199.891 46.5312 199.606 47.1285 199.496C47.7258 199.387 48.3423 199.457 48.8994 199.698C49.4565 199.94 49.9288 200.341 50.2561 200.851C50.5834 201.361 50.7508 201.957 50.737 202.562C50.7189 203.358 50.3889 204.116 49.8177 204.672C49.2466 205.229 48.4796 205.54 47.681 205.54Z" fill="#35C9FC"/>
<path d="M250.405 225.467C248.907 225.464 247.442 225.904 246.195 226.731C244.947 227.558 243.974 228.736 243.399 230.115C242.823 231.494 242.67 233.012 242.961 234.478C243.251 235.943 243.97 237.29 245.029 238.347C246.087 239.405 247.436 240.125 248.905 240.418C250.374 240.711 251.897 240.562 253.281 239.991C254.665 239.421 255.849 238.453 256.682 237.211C257.514 235.97 257.959 234.509 257.959 233.016C257.959 231.017 257.163 229.099 255.747 227.684C254.331 226.269 252.41 225.472 250.405 225.467ZM250.405 236.063C249.796 236.066 249.199 235.889 248.691 235.554C248.183 235.218 247.787 234.74 247.552 234.179C247.317 233.619 247.255 233.001 247.373 232.405C247.491 231.809 247.784 231.261 248.215 230.832C248.646 230.402 249.195 230.11 249.793 229.992C250.39 229.874 251.01 229.937 251.572 230.171C252.134 230.405 252.614 230.8 252.951 231.307C253.287 231.813 253.465 232.408 253.461 233.016C253.461 233.824 253.139 234.599 252.566 235.17C251.993 235.742 251.216 236.063 250.405 236.063Z" fill="#35C9FC"/>
<path d="M312.29 108.31C311.143 108.307 310.02 108.643 309.064 109.276C308.108 109.909 307.362 110.811 306.92 111.868C306.478 112.924 306.361 114.087 306.583 115.21C306.805 116.333 307.356 117.365 308.166 118.175C308.976 118.986 310.01 119.538 311.135 119.763C312.261 119.987 313.428 119.874 314.488 119.437C315.549 118.999 316.456 118.258 317.094 117.307C317.732 116.356 318.073 115.237 318.073 114.093C318.068 112.563 317.458 111.098 316.375 110.015C315.292 108.932 313.824 108.319 312.29 108.31ZM312.29 116.43C311.827 116.43 311.374 116.293 310.988 116.036C310.603 115.779 310.302 115.414 310.125 114.987C309.947 114.56 309.901 114.09 309.991 113.637C310.082 113.183 310.305 112.767 310.633 112.44C310.961 112.113 311.378 111.89 311.833 111.8C312.288 111.71 312.759 111.756 313.187 111.933C313.616 112.11 313.982 112.41 314.24 112.794C314.497 113.178 314.635 113.63 314.635 114.093C314.637 114.4 314.578 114.705 314.461 114.99C314.344 115.274 314.171 115.533 313.953 115.75C313.735 115.968 313.476 116.14 313.19 116.257C312.905 116.373 312.599 116.432 312.29 116.43Z" fill="#35C9FC"/>
<path d="M210.295 15.9277C209.082 15.9277 207.897 16.2862 206.889 16.9577C205.881 17.6292 205.096 18.5837 204.632 19.7005C204.168 20.8172 204.047 22.046 204.283 23.2315C204.52 24.417 205.103 25.506 205.961 26.3607C206.818 27.2154 207.91 27.7975 209.099 28.0333C210.288 28.2691 211.52 28.1481 212.64 27.6855C213.76 27.223 214.718 26.4396 215.391 25.4346C216.065 24.4296 216.424 23.248 216.424 22.0392C216.424 20.4184 215.778 18.8639 214.629 17.7178C213.479 16.5716 211.92 15.9277 210.295 15.9277ZM210.295 24.5842C209.804 24.5842 209.324 24.439 208.915 24.167C208.507 23.895 208.189 23.5083 208.001 23.0559C207.813 22.6035 207.764 22.1057 207.859 21.6255C207.955 21.1452 208.192 20.7041 208.539 20.3579C208.886 20.0116 209.329 19.7758 209.81 19.6803C210.292 19.5848 210.791 19.6338 211.245 19.8212C211.699 20.0086 212.086 20.3259 212.359 20.733C212.632 21.1402 212.778 21.6188 212.778 22.1085C212.76 22.753 212.49 23.3651 212.026 23.8145C211.563 24.2639 210.941 24.5152 210.295 24.515V24.5842Z" fill="#35C9FC"/>
<path d="M14.3948 158.206C13.1207 158.206 11.8752 158.583 10.8158 159.289C9.7564 159.995 8.93071 160.998 8.44313 162.171C7.95555 163.345 7.82798 164.637 8.07654 165.883C8.32511 167.128 8.93865 168.273 9.83959 169.171C10.7405 170.07 11.8884 170.681 13.138 170.929C14.3876 171.177 15.6829 171.05 16.86 170.564C18.0372 170.077 19.0433 169.254 19.7511 168.198C20.459 167.142 20.8368 165.9 20.8368 164.629C20.8368 162.926 20.1581 161.292 18.95 160.088C17.7419 158.883 16.1033 158.206 14.3948 158.206Z" fill="#35C9FC"/>
<path d="M272.736 179.467C271.808 179.467 270.901 179.741 270.13 180.256C269.358 180.77 268.758 181.501 268.403 182.356C268.049 183.212 267.957 184.152 268.139 185.06C268.322 185.967 268.77 186.8 269.427 187.453C270.085 188.106 270.922 188.55 271.832 188.728C272.743 188.906 273.686 188.811 274.542 188.455C275.399 188.098 276.13 187.497 276.643 186.726C277.156 185.955 277.428 185.049 277.424 184.124C277.425 183.511 277.303 182.904 277.067 182.338C276.831 181.771 276.486 181.257 276.05 180.825C275.615 180.392 275.098 180.049 274.529 179.816C273.96 179.583 273.351 179.464 272.736 179.467Z" fill="#35C9FC"/>
<path d="M117.641 17.8497C116.288 17.8497 114.965 18.2498 113.84 18.9993C112.715 19.7489 111.838 20.8142 111.32 22.0607C110.803 23.3071 110.667 24.6786 110.931 26.0018C111.195 27.325 111.847 28.5405 112.803 29.4945C113.76 30.4484 114.979 31.0981 116.306 31.3613C117.633 31.6245 119.009 31.4894 120.259 30.9731C121.509 30.4569 122.578 29.5825 123.329 28.4608C124.081 27.339 124.482 26.0202 124.482 24.6711C124.478 22.8633 123.756 21.131 122.474 19.8527C121.192 18.5744 119.454 17.8543 117.641 17.8497Z" fill="#35C9FC"/>
<path d="M154.296 265.062C153.313 265.062 152.351 265.352 151.533 265.896C150.715 266.44 150.076 267.213 149.697 268.118C149.318 269.023 149.217 270.019 149.405 270.982C149.593 271.944 150.062 272.829 150.754 273.526C151.446 274.223 152.329 274.7 153.292 274.898C154.256 275.096 155.256 275.005 156.167 274.636C157.079 274.268 157.861 273.64 158.414 272.829C158.968 272.019 159.269 271.063 159.279 270.083C159.284 269.427 159.159 268.776 158.91 268.168C158.662 267.56 158.296 267.007 157.833 266.541C157.37 266.075 156.819 265.704 156.212 265.45C155.605 265.196 154.954 265.065 154.296 265.062Z" fill="#35C9FC"/>
<path d="M250.839 44.1829C249.682 44.1829 248.551 44.525 247.588 45.1661C246.626 45.8073 245.876 46.7185 245.433 47.7846C244.99 48.8507 244.874 50.0238 245.1 51.1556C245.326 52.2874 245.883 53.327 246.702 54.143C247.52 54.9589 248.563 55.5146 249.698 55.7397C250.833 55.9649 252.009 55.8493 253.079 55.4077C254.148 54.9661 255.062 54.2183 255.705 53.2588C256.348 52.2993 256.691 51.1713 256.691 50.0173C256.691 48.4699 256.074 46.9859 254.977 45.8917C253.88 44.7976 252.391 44.1829 250.839 44.1829Z" fill="#35C9FC"/>
<path d="M43.4801 96.2085C45.3214 96.2085 46.814 94.7203 46.814 92.8844C46.814 91.0486 45.3214 89.5603 43.4801 89.5603C41.6389 89.5603 40.1462 91.0486 40.1462 92.8844C40.1462 94.7203 41.6389 96.2085 43.4801 96.2085Z" fill="#35C9FC"/>
<path d="M314.288 79.2071C313.16 79.2105 312.058 79.5478 311.123 80.1762C310.187 80.8046 309.46 81.6958 309.033 82.7367C308.606 83.7777 308.499 84.9216 308.725 86.0234C308.951 87.1252 309.5 88.1353 310.303 88.9256C311.105 89.7159 312.125 90.2509 313.232 90.4627C314.34 90.6746 315.486 90.5537 316.525 90.1154C317.563 89.6771 318.448 88.9412 319.067 88.0009C319.686 87.0606 320.011 85.9583 320 84.8338C319.987 83.3337 319.378 81.9 318.308 80.8458C317.237 79.7916 315.792 79.2024 314.288 79.2071Z" fill="#35C9FC"/>
<path d="M11.1993 116.447C13.2035 116.447 14.8283 114.827 14.8283 112.829C14.8283 110.83 13.2035 109.21 11.1993 109.21C9.19498 109.21 7.57019 110.83 7.57019 112.829C7.57019 114.827 9.19498 116.447 11.1993 116.447Z" fill="#35C9FC"/>
<path d="M163.69 5.73035L165.983 3.46234C166.357 3.08061 166.567 2.56792 166.567 2.03402C166.567 1.50011 166.357 0.987421 165.983 0.605693C165.597 0.231313 165.08 0.0218296 164.541 0.0218296C164.003 0.0218296 163.486 0.231313 163.1 0.605693L160.825 2.85639L158.551 0.58838C158.165 0.214 157.648 0.0045166 157.11 0.0045166C156.571 0.0045166 156.054 0.214 155.668 0.58838C155.294 0.970108 155.084 1.4828 155.084 2.0167C155.084 2.55061 155.294 3.0633 155.668 3.44503L158.012 5.73035L155.668 7.99835C155.288 8.37946 155.076 8.89545 155.078 9.4328C155.079 9.97015 155.295 10.4848 155.677 10.8637C156.059 11.2425 156.577 11.4544 157.116 11.4528C157.655 11.4511 158.171 11.2361 158.551 10.855L160.825 8.65625L163.1 10.9243C163.48 11.3054 163.996 11.5204 164.535 11.522C165.074 11.5236 165.592 11.3117 165.974 10.9329C166.356 10.5541 166.572 10.0394 166.573 9.50205C166.575 8.9647 166.362 8.44872 165.983 8.0676L163.69 5.73035Z" fill="#35C9FC"/>
<path d="M8.68219 74.4459L10.9569 72.1605C11.1464 71.9738 11.2969 71.7513 11.3995 71.5062C11.5022 71.261 11.5551 70.9979 11.5551 70.7322C11.5551 70.4665 11.5022 70.2035 11.3995 69.9583C11.2969 69.7131 11.1464 69.4907 10.9569 69.3039C10.574 68.9306 10.0598 68.7216 9.52434 68.7216C8.98886 68.7216 8.47466 68.9306 8.09181 69.3039L5.74768 71.5026L3.47301 69.252C3.08723 68.8776 2.57014 68.6681 2.0318 68.6681C1.49346 68.6681 0.976372 68.8776 0.590593 69.252C0.216214 69.6337 0.00658793 70.1464 0.00658793 70.6803C0.00658793 71.2142 0.216214 71.7269 0.590593 72.1086L2.86527 74.4459L0.590593 76.6446C0.210664 77.0257 -0.00186305 77.5417 -0.000234854 78.0791C0.00139334 78.6164 0.217044 79.1311 0.599275 79.5099C0.981507 79.8887 1.49901 80.1006 2.03794 80.099C2.57687 80.0974 3.09308 79.8824 3.47301 79.5013L5.74768 77.2333L8.02236 79.5013C8.41084 79.8346 8.91132 80.0092 9.42348 79.9901C9.93564 79.971 10.4216 79.7595 10.784 79.3982C11.1464 79.0369 11.3585 78.5523 11.3777 78.0416C11.3968 77.531 11.2217 77.032 10.8874 76.6446L8.68219 74.4459Z" fill="#35C9FC"/>
<path d="M277.319 213.071L279.247 211.15C279.446 211.001 279.61 210.811 279.729 210.593C279.848 210.375 279.919 210.135 279.937 209.887C279.954 209.64 279.918 209.392 279.831 209.159C279.745 208.927 279.608 208.716 279.433 208.54C279.257 208.365 279.045 208.229 278.812 208.143C278.579 208.056 278.33 208.02 278.082 208.038C277.833 208.055 277.592 208.126 277.374 208.244C277.155 208.363 276.965 208.527 276.816 208.726L274.888 210.647L272.961 208.726C272.636 208.409 272.2 208.231 271.745 208.231C271.291 208.231 270.854 208.409 270.53 208.726C270.212 209.049 270.034 209.484 270.034 209.938C270.034 210.391 270.212 210.826 270.53 211.15L272.457 213.071L270.53 214.993C270.264 215.325 270.129 215.743 270.152 216.167C270.175 216.592 270.353 216.993 270.654 217.295C270.954 217.596 271.355 217.777 271.78 217.803C272.206 217.829 272.626 217.697 272.961 217.434L274.888 215.495L276.816 217.434C277.14 217.751 277.577 217.929 278.031 217.929C278.486 217.929 278.922 217.751 279.247 217.434C279.57 217.11 279.751 216.671 279.751 216.214C279.751 215.756 279.57 215.317 279.247 214.993L277.319 213.071Z" fill="#35C9FC"/>
</g>
<defs>
<clipPath id="clip0">
<rect width="320" height="275" fill="white"/>
</clipPath>
</defs>
</svg>
