<svg width="40" height="39" viewBox="0 0 40 39" fill="none" xmlns="http://www.w3.org/2000/svg">
<rect x="1" y="1" width="38" height="37" rx="3" stroke="url(#paint0_linear)" stroke-width="2" stroke-linecap="round" stroke-linejoin="round"/>
<g clip-path="url(#clip0)">
<path d="M19.2186 23.8572L17.4511 25.6903C16.7183 26.4503 15.5317 26.4503 14.7995 25.6904C14.0672 24.931 14.0672 23.7001 14.7994 22.9408L18.335 19.2739C19.0672 18.5146 20.254 18.5146 20.9861 19.2739C21.2302 19.5271 21.626 19.5271 21.87 19.2739C22.1141 19.0208 22.1141 18.6104 21.87 18.3572C20.6497 17.0916 18.6715 17.0916 17.4511 18.3572L13.9155 22.0241C12.6952 23.2897 12.6952 25.3413 13.9155 26.6069C15.1357 27.8732 17.1141 27.8732 18.335 26.6069L20.1026 24.7738C20.3466 24.5207 20.3466 24.1103 20.1026 23.8571C19.8585 23.604 19.4627 23.604 19.2186 23.8572Z" fill="#3F3F3F"/>
<path d="M27.0847 12.9492C25.8644 11.6836 23.8855 11.6836 22.6652 12.9492L20.5445 15.1486C20.3005 15.4017 20.3005 15.8121 20.5445 16.0652C20.7886 16.3184 21.1844 16.3184 21.4284 16.0652L23.5491 13.8659C24.2812 13.1065 25.4686 13.1065 26.2008 13.8659C26.933 14.6252 26.933 15.8561 26.2008 16.6154L22.3121 20.6485C21.5799 21.4079 20.3931 21.4079 19.6609 20.6485C19.4169 20.3954 19.0211 20.3954 18.777 20.6485C18.533 20.9017 18.533 21.3121 18.777 21.5652C19.9974 22.8308 21.9756 22.8308 23.196 21.5652L27.0847 17.5321C28.3051 16.2665 28.3051 14.2148 27.0847 12.9492Z" fill="#3F3F3F"/>
</g>
<defs>
<linearGradient id="paint0_linear" x1="40.1446" y1="1.00002" x2="-1.27112" y2="2.69117" gradientUnits="userSpaceOnUse">
<stop offset="0.044957" stop-color="#6E4BE8"/>
<stop offset="1" stop-color="#1EA8E7"/>
</linearGradient>
<clipPath id="clip0">
<rect x="13" y="12" width="15" height="15.5566" fill="white"/>
</clipPath>
</defs>
</svg>
