<svg width="18" height="20" viewBox="0 0 18 20" fill="none" xmlns="http://www.w3.org/2000/svg">
<path d="M3.23917 16.4472L3.23919 16.4474C3.30417 17.1603 3.63117 17.8188 4.15985 18.3015C4.68853 18.7842 5.37401 19.05 6.08985 19.05H12.5039C13.9943 19.05 15.2203 17.9397 15.3546 16.4669C15.3923 16.0526 15.0872 15.6862 14.6729 15.6484L14.6684 15.6982L14.6729 15.6484C14.2583 15.6107 13.8923 15.9158 13.8545 16.3301C13.7915 17.0215 13.2117 17.5438 12.5039 17.5438H6.08985C5.38535 17.5438 4.8059 17.0162 4.73964 16.3153C4.73963 16.3152 4.73962 16.3151 4.7396 16.3149L3.89572 5.37422H14.698L14.1016 13.1061C14.0697 13.5209 14.3799 13.883 14.7946 13.915L14.7947 13.915C14.8143 13.9165 14.8338 13.9172 14.8533 13.9172C15.243 13.9172 15.573 13.617 15.6034 13.222L16.2088 5.37422H16.8906C17.3066 5.37422 17.6437 5.03704 17.6437 4.62109C17.6437 4.20514 17.3066 3.86797 16.8906 3.86797H12.6867V3.10938C12.6867 1.91865 11.7181 0.95 10.5273 0.95H8.06641C6.87568 0.95 5.90703 1.91865 5.90703 3.10938V3.86797H1.70312C1.28717 3.86797 0.95 4.20514 0.95 4.62109C0.95 5.03704 1.28717 5.37422 1.70312 5.37422H2.38499L3.23832 16.4369L3.23833 16.437L3.23917 16.4472ZM12.6867 3.91797H12.6367V3.86797L12.6867 3.91797ZM11.1805 3.86797H7.41328V3.10938C7.41328 2.74929 7.70632 2.45625 8.06641 2.45625H10.5273C10.8874 2.45625 11.1805 2.74929 11.1805 3.10938V3.86797Z" fill="#898989" stroke="#898989" stroke-width="0.1"/>
<path d="M6.10214 6.73119L6.09995 6.68124C5.68442 6.69939 5.36227 7.05095 5.38042 7.46652L5.73198 15.5149C5.74964 15.9193 6.08301 16.2352 6.48386 16.2352C6.49486 16.2352 6.50608 16.235 6.5174 16.2345C6.93287 16.2163 7.25495 15.8647 7.2368 15.4492L6.88524 7.40074C6.86709 6.98527 6.51491 6.66256 6.09989 6.68124L6.10214 6.73119ZM6.10214 6.73119C5.71419 6.74813 5.41342 7.07635 5.43037 7.46434L5.78193 15.5128C5.79842 15.8903 6.10966 16.1852 6.48386 16.1852C6.4942 16.1852 6.50464 16.185 6.51508 16.1845L6.10214 6.73119Z" fill="#898989" stroke="#898989" stroke-width="0.1"/>
<path d="M12.4939 6.68123C12.0789 6.66268 11.7267 6.98522 11.7085 7.40073L11.357 15.4492C11.3388 15.8647 11.661 16.2163 12.0765 16.2345C12.0876 16.235 12.0988 16.2352 12.1099 16.2352C12.5107 16.2352 12.8441 15.9193 12.8618 15.5149L13.2134 7.46651C13.2315 7.05098 12.9094 6.69939 12.4939 6.68123ZM12.4939 6.68123C12.4939 6.68123 12.4939 6.68123 12.4939 6.68123L12.4916 6.73118L12.4938 6.68123C12.4938 6.68123 12.4938 6.68123 12.4939 6.68123Z" fill="#898989" stroke="#898989" stroke-width="0.1"/>
<path d="M8.54375 7.43359V15.482C8.54375 15.898 8.88092 16.2351 9.29688 16.2351C9.71283 16.2351 10.05 15.898 10.05 15.482V7.43359C10.05 7.01764 9.71283 6.68047 9.29688 6.68047C8.88092 6.68047 8.54375 7.01764 8.54375 7.43359Z" fill="#898989" stroke="#898989" stroke-width="0.1"/>
</svg>
