<svg width="35" height="35" viewBox="0 0 35 35" fill="none" xmlns="http://www.w3.org/2000/svg">
<g filter="url(#filter0_d)">
<path d="M22.1878 23.0003H12.8126C11.2591 23.0003 10 21.7412 10 20.1878V10.8126C10 9.25909 11.2591 8 12.8126 8H22.1878C23.7412 8 25.0003 9.25909 25.0003 10.8126V20.1878C25.0003 21.7412 23.7412 23.0003 22.1878 23.0003Z" fill="#35C9FC"/>
<path d="M15.7349 17.1543V18.4516C15.7349 18.5605 15.802 18.6588 15.904 18.698C15.9352 18.7101 15.9675 18.7159 15.9992 18.7159C16.0721 18.7159 16.1435 18.6858 16.1948 18.6292L17.0724 17.6634L15.7349 17.1543Z" fill="#BCEEFF"/>
<path d="M21.3768 12.0892C21.3028 12.0205 21.196 11.9999 21.1014 12.0363L13.1716 15.12C13.0695 15.1602 13.0024 15.2585 13.0029 15.3679C13.0035 15.4774 13.0711 15.5752 13.1732 15.6137L15.3591 16.4453L20.1102 13.3992L16.1907 16.762L19.4287 17.9932C19.4589 18.0043 19.4911 18.0107 19.5228 18.0107C19.563 18.0107 19.6027 18.0017 19.6391 17.9837C19.7047 17.9515 19.7544 17.8933 19.7755 17.8235L21.4498 12.3609C21.4794 12.2637 21.4514 12.1585 21.3768 12.0892Z" fill="white"/>
</g>
<defs>
<filter id="filter0_d" x="0" y="0" width="35.0003" height="35.0003" filterUnits="userSpaceOnUse" color-interpolation-filters="sRGB">
<feFlood flood-opacity="0" result="BackgroundImageFix"/>
<feColorMatrix in="SourceAlpha" type="matrix" values="0 0 0 0 0 0 0 0 0 0 0 0 0 0 0 0 0 0 127 0"/>
<feOffset dy="2"/>
<feGaussianBlur stdDeviation="5"/>
<feColorMatrix type="matrix" values="0 0 0 0 0 0 0 0 0 0 0 0 0 0 0 0 0 0 0.15 0"/>
<feBlend mode="normal" in2="BackgroundImageFix" result="effect1_dropShadow"/>
<feBlend mode="normal" in="SourceGraphic" in2="effect1_dropShadow" result="shape"/>
</filter>
</defs>
</svg>
