<svg width="67" height="54" viewBox="0 0 67 54" fill="none" xmlns="http://www.w3.org/2000/svg">
<g filter="url(#filter0_d)">
<path d="M35.9596 35.1205C35.5907 35.2189 35.3202 35.5631 35.3202 35.9566V40.789C35.3202 41.0595 35.4432 41.3054 35.6522 41.4653C35.8612 41.6251 36.144 41.6866 36.4022 41.6128L41.2346 40.3094C41.6158 40.2111 41.874 39.8668 41.874 39.4733V34.6409C41.874 34.3704 41.751 34.1245 41.542 33.9647C41.333 33.8048 41.0502 33.7433 40.7919 33.8171L38.4065 34.4565L35.9596 35.1205ZM40.1648 38.8093L37.0539 39.6577V36.6083L40.1648 35.7599V38.8093Z" fill="black"/>
<path d="M25.7538 10.4065C25.5079 10.3204 26.1842 10.0007 25.9383 9.90234L9.74435 14.2797C9.73205 14.2797 9.73205 14.2797 9.71976 14.292C9.69516 14.292 9.65828 14.3043 9.63368 14.3166C9.62139 14.3166 9.60909 14.3166 9.60909 14.3289C9.55991 14.3412 9.52302 14.3658 9.48613 14.4027C9.47383 14.4027 9.47384 14.415 9.46154 14.4273C9.44924 14.4273 9.43695 14.4396 9.43695 14.4519C9.42465 14.4642 9.41235 14.4765 9.40006 14.4888C9.40006 14.4888 9.38776 14.4888 9.38776 14.5011C9.38776 14.5011 9.38776 14.5011 9.37547 14.5134C9.36317 14.5134 9.36317 14.5257 9.35087 14.538C9.32628 14.5626 9.30169 14.5871 9.28939 14.6117C9.2771 14.624 9.2648 14.6363 9.25251 14.6609C9.24021 14.6855 9.22791 14.6978 9.21562 14.7224L4.10045 24.1781C3.97749 24.4117 3.96519 24.6822 4.07586 24.9281C4.17423 25.1741 4.38326 25.3462 4.64148 25.42L9.10495 26.625V38.5276C9.10495 38.5645 9.10495 38.6014 9.11725 38.6383C9.11725 38.6629 9.11725 38.6998 9.12955 38.7243C9.15414 38.8473 9.20332 38.958 9.2771 39.044C9.30169 39.0809 9.33858 39.1178 9.37547 39.1424C9.40006 39.167 9.41235 39.1793 9.43695 39.2039C9.44924 39.2162 9.46154 39.2162 9.47384 39.2285C9.52302 39.2654 9.5845 39.3023 9.64598 39.3269C9.67057 39.3391 9.69516 39.3514 9.71976 39.3514C9.71976 39.3514 9.73205 39.3637 9.74435 39.3637L33.1192 45.6716C33.2544 45.7208 33.3897 45.7208 33.525 45.7085C33.5618 45.7085 33.5864 45.6962 33.6233 45.6839L33.6725 45.6716L57.0473 39.3637C57.0596 39.3637 57.0596 39.3637 57.0719 39.3514C57.0965 39.3514 57.1211 39.3391 57.1457 39.3269C57.2072 39.3023 57.2564 39.2777 57.3179 39.2285C57.3302 39.2285 57.3425 39.2162 57.3548 39.2039C57.3793 39.1916 57.4039 39.167 57.4162 39.1424C57.4531 39.1055 57.4777 39.0809 57.5146 39.044C57.5884 38.9457 57.6376 38.835 57.6622 38.7243C57.6744 38.6998 57.6744 38.6752 57.6744 38.6383C57.6867 38.6014 57.6867 38.5645 57.6867 38.5276V26.625L62.1502 25.42C62.4084 25.3585 62.6175 25.1741 62.7158 24.9281C62.8265 24.6945 62.8142 24.4117 62.6912 24.1781L57.5884 14.6855C57.5761 14.6609 57.5638 14.6486 57.5515 14.624C57.5392 14.6117 57.5269 14.5871 57.5146 14.5749C57.5023 14.5503 57.4777 14.5257 57.4531 14.5011C57.4531 14.5011 57.4408 14.4888 57.4285 14.4765C57.4285 14.4765 57.4285 14.4642 57.4162 14.4642L57.4039 14.4519C57.3916 14.4396 57.3793 14.4273 57.367 14.415L57.3548 14.4027C57.3548 14.4027 57.3425 14.3904 57.3302 14.3904C57.3179 14.3781 57.3179 14.3781 57.3056 14.3658C57.2687 14.3412 57.2318 14.3166 57.1826 14.292C57.1703 14.2797 57.1703 14.2797 57.158 14.2797C57.1334 14.2675 57.0965 14.2552 57.0719 14.2552C57.0719 14.2429 57.0596 14.2429 57.0473 14.2429L40.9272 9.90234L40.2263 11.4885L53.5307 15.079L34.2504 20.3048L33.3897 20.5384L32.529 20.3048L13.261 15.1036L26.0735 11.6484L25.7538 10.4065ZM9.10495 24.8421L6.1293 24.0428L9.10495 18.5096L10.396 16.1119L10.8264 16.2225L32.1232 21.9648L27.8565 29.9081L10.8264 25.3093L9.10495 24.8421ZM32.529 43.7288L13.261 38.5276L10.8264 37.8636V27.08L28.0655 31.7402C28.1393 31.7648 28.2131 31.7648 28.2868 31.7648C28.6065 31.7648 28.8893 31.5926 29.0492 31.3098L32.5413 24.8298V43.7288H32.529ZM55.953 37.8759L53.5184 38.5399L34.2504 43.7288V24.8421L37.7425 31.3221C37.8901 31.6049 38.1852 31.7771 38.5049 31.7771C38.5786 31.7771 38.6524 31.7648 38.7262 31.7525L55.9653 27.0923V37.8759H55.953ZM57.6744 24.8421L55.953 25.3093L38.9229 29.9081L34.6562 21.9771L55.953 16.2348L56.3834 16.1242L57.6744 18.5219L60.6501 24.0551L57.6744 24.8421Z" fill="black"/>
<path d="M49.682 38.2442C49.7558 38.2442 49.8296 38.2319 49.9034 38.2196L51.1207 37.8876L54.4283 37.0023L54.7357 36.9162C55.1907 36.7932 55.4612 36.3137 55.3382 35.8587C55.2153 35.4038 54.7357 35.1333 54.2808 35.2562L51.1207 36.1047L49.4484 36.5596C49.1164 36.6457 48.8705 36.9285 48.8213 37.2605C48.809 37.3712 48.809 37.4941 48.8459 37.6048C48.9566 37.986 49.2886 38.2442 49.682 38.2442Z" fill="black"/>
<path d="M33.3897 16.8981C28.8156 16.8981 25.0898 13.1724 25.0898 8.59828C25.0898 4.02414 28.8156 0.286133 33.3897 0.286133C37.9638 0.286133 41.6895 4.01184 41.6895 8.58598C41.6895 13.1601 37.9638 16.8981 33.3897 16.8981ZM33.3897 1.76166C29.6271 1.76166 26.5654 4.82338 26.5654 8.58598C26.5654 12.3486 29.6271 15.4103 33.3897 15.4103C37.1523 15.4103 40.214 12.3486 40.214 8.58598C40.214 4.82338 37.1523 1.76166 33.3897 1.76166Z" fill="black"/>
<path d="M32.5659 11.6118V5.56212C32.5659 5.10716 32.9348 4.73828 33.3898 4.73828C33.8447 4.73828 34.2136 5.10716 34.2136 5.56212V11.6118C34.2136 12.0667 33.8447 12.4356 33.3898 12.4356C32.9348 12.4356 32.5659 12.0667 32.5659 11.6118Z" fill="black"/>
<path d="M30.365 7.77441H36.4146C36.8696 7.77441 37.2385 8.1433 37.2385 8.59825C37.2385 9.05321 36.8696 9.42209 36.4146 9.42209H30.365C29.91 9.42209 29.5411 9.05321 29.5411 8.59825C29.5411 8.1433 29.91 7.77441 30.365 7.77441Z" fill="black"/>
</g>
<defs>
<filter id="filter0_d" x="0" y="0.286133" width="66.7917" height="53.4292" filterUnits="userSpaceOnUse" color-interpolation-filters="sRGB">
<feFlood flood-opacity="0" result="BackgroundImageFix"/>
<feColorMatrix in="SourceAlpha" type="matrix" values="0 0 0 0 0 0 0 0 0 0 0 0 0 0 0 0 0 0 127 0"/>
<feOffset dy="4"/>
<feGaussianBlur stdDeviation="2"/>
<feColorMatrix type="matrix" values="0 0 0 0 0 0 0 0 0 0 0 0 0 0 0 0 0 0 0.25 0"/>
<feBlend mode="normal" in2="BackgroundImageFix" result="effect1_dropShadow"/>
<feBlend mode="normal" in="SourceGraphic" in2="effect1_dropShadow" result="shape"/>
</filter>
</defs>
</svg>
