<svg width="17" height="17" viewBox="0 0 17 17" fill="none" xmlns="http://www.w3.org/2000/svg">
<path fill-rule="evenodd" clip-rule="evenodd" d="M10.9414 3.99215L6.95354 7.99437L6.66848 9.41969L8.09225 9.13494L12.081 5.13179L10.9414 3.99215ZM12.079 2.85047L13.2186 3.9901L14.1193 3.08615L12.9797 1.94651L12.079 2.85047ZM13.5485 0.236027L15.8278 2.51531C16.1421 2.82961 16.1425 3.33905 15.8288 3.65392L9.06116 10.4459C8.94852 10.559 8.80485 10.636 8.64836 10.6673L5.79926 11.2371C5.23539 11.3499 4.73825 10.8528 4.85102 10.2889L5.42084 7.43981C5.45195 7.28429 5.52825 7.1414 5.6402 7.02905L12.4078 0.237052C12.7224 -0.0786167 13.2334 -0.0790754 13.5485 0.236027ZM12.0877 9.23811C12.0877 8.79305 12.4485 8.43226 12.8936 8.43226C13.3386 8.43226 13.6994 8.79305 13.6994 9.23811V13.771C13.6994 15.0505 12.6621 16.0878 11.3826 16.0878H2.31681C1.03727 16.0878 0 15.0505 0 13.771L1.92129e-06 4.70521C1.92129e-06 3.42567 1.03727 2.38841 2.31681 2.38841L7.22744 2.38841C7.6725 2.38841 8.03329 2.7492 8.03329 3.19426C8.03329 3.63931 7.6725 4.0001 7.22744 4.0001L2.31681 4.0001C1.92739 4.0001 1.6117 4.31579 1.6117 4.70521L1.61169 13.771C1.61169 14.1604 1.92738 14.4761 2.31681 14.4761H11.3826C11.772 14.4761 12.0877 14.1604 12.0877 13.771V9.23811Z" fill="#898989"/>
</svg>
